<svg xmlns="http://www.w3.org/2000/svg" width="557" height="568" viewBox="0 0 96.48 97.51"><g transform="translate(-27.52 -22.15)"><path d="M111,67.33a21.23,21.23,0,0,0-1.6-6.7.69.69,0,0,0-.6-.25.44.44,0,0,0-.33.12v.27A23.51,23.51,0,0,1,109.94,67a10.45,10.45,0,0,1-.63,4.24,14.49,14.49,0,0,0,0,3.29c0,.44-.22.65-.4.65s-.41-.18-.44-.69c-.09-1.25-.13-2.32-.16-3.28v-.1a20.64,20.64,0,0,0-.45-4.54,9.4,9.4,0,0,0-2.13-3.28,9.29,9.29,0,0,1-1.18-2.54c-.06-.19-.1-.39-.15-.62s-.14-.51-.21-.74L103.7,58a.32.32,0,0,0-.28-.14.81.81,0,0,0-.59.31.54.54,0,0,0-.11.43l1.2,4.06a7.32,7.32,0,0,0,1.46,2.08l0,0c.33.38.63.72.91,1.09a3.52,3.52,0,0,1,.68,1.92c.2,1.39.36,3.37.51,6.23l.81,4.09a13.82,13.82,0,0,1-.18,4.56c0,.6,0,.8.1.87l.09,0c.07,0,.27,0,.7-.46,1.14-1.39,1.08-6.08,1-9.86a20.6,20.6,0,0,1,.54-3.07,9.21,9.21,0,0,0,.4-2.78"/><path d="M106.91,61.15l-.08-.71a.89.89,0,0,0-.12-.39,1.32,1.32,0,0,0-.8-.62,1,1,0,0,0-.26,0l-.1,0s0,.06,0,.18a6.48,6.48,0,0,0,1.94,3.84l.14,0h0a.8.8,0,0,0,0-.4l-.52-1.22a2.15,2.15,0,0,1-.19-.69"/><path d="M101.88,72.1h-.07c-.19,0-.37-.19-.46-.46a11.4,11.4,0,0,1-1-3.58c-.1-.51-.2-1-.35-1.51a4,4,0,0,0-1.3-2.27,11.09,11.09,0,0,1-3.39-4.47c-.19-.42-.41-.67-.59-.66a.28.28,0,0,0-.22.14,1,1,0,0,0-.11.86,10.8,10.8,0,0,0,1.46,2.66,4.16,4.16,0,0,0,.64.63l.13.11a11.08,11.08,0,0,1,2,2,4.87,4.87,0,0,1,.73,2.21c0,.17.06.33.08.5l0,.13a20.22,20.22,0,0,0,2.06,5.75,6.85,6.85,0,0,1,.57,1.89l.37,2.43c.11.63.32.79.42.79l.11,0a.92.92,0,0,0,.16-.67,46,46,0,0,0-.34-7.24c-.37-2.88-.88-4.75-1.53-5.72a.76.76,0,0,0-.58-.42l-.06,0a.75.75,0,0,0,.11.45,17.36,17.36,0,0,1,1.37,5.81A.74.74,0,0,1,102,72Z"/><path d="M97.41,59.64a.48.48,0,0,0-.51-.37.53.53,0,0,0-.32.13l0,.13a6.24,6.24,0,0,0,1.79,3l.21.11.06,0a.44.44,0,0,0-.07-.29,7.06,7.06,0,0,1-1.14-2.68"/><path d="M105.27,72.31h-.08c-.11,0-.28-.07-.43-.4a1.64,1.64,0,0,1-.16-.55l-.68-4.19a7.24,7.24,0,0,0-1.56-3.24,14.64,14.64,0,0,1-3-5.17c-.15-.58-.36-.73-.46-.73s-.22.18-.27.5a1.23,1.23,0,0,0,.07.66A10.47,10.47,0,0,0,101.34,64a4,4,0,0,1,1.41,2.55v0c.1.49.21,1,.3,1.49l0,0a34.26,34.26,0,0,0,1.76,6.53,5.76,5.76,0,0,1,.47,1.94c.09,1.57.17,2.52.26,3.31.08.63.29.91.42.91s.28-.22.37-.8a36.85,36.85,0,0,0,0-7.92,29,29,0,0,0-.53-4.28,4.42,4.42,0,0,0-.8-1.74c-.26-.31-.38-.38-.44-.39a1.07,1.07,0,0,0,0,.43,32.42,32.42,0,0,1,.92,5.44.84.84,0,0,1-.14.67Z"/><path d="M102.58,62.15a7.84,7.84,0,0,1-.79-1.84l-.21-1.07a.93.93,0,0,0-.23-.52.9.9,0,0,0-.64-.32.28.28,0,0,0-.22.08.35.35,0,0,0,0,.29,7.48,7.48,0,0,0,2,3.95h0c.09.08.14.13.23.13h0l.07,0a.54.54,0,0,0,0-.24,1.6,1.6,0,0,0-.2-.45"/><path d="M98.05,72.05l0,.09c.1.28.18.53.27.79a1.48,1.48,0,0,0,.32.61c.1.11.2.18.29.17s.21-.15.24-.24a1.71,1.71,0,0,0,0-.62c-.23-4.2-.81-6.6-1.86-7.75-.23-.23-.34-.24-.35-.24s0,0,0,.2a.8.8,0,0,0,.14.42,7.57,7.57,0,0,1,.67,1.91.63.63,0,0,1-.08.57l-.1.06,0,0h0c-.16,0-.34-.17-.47-.48a5.13,5.13,0,0,0-2.18-2.66,13.78,13.78,0,0,1-3.19-2.45,7.68,7.68,0,0,1-.85-1.33.34.34,0,0,0-.21-.21c-.17,0-.4.29-.46.57a.4.4,0,0,0,.07.37,6.43,6.43,0,0,0,2.7,2.82,7.28,7.28,0,0,1,3.74,3.6c.7,1.66,1.11,2.93,1.38,3.78"/><path d="M92.38,60.36a.52.52,0,0,0-.4.17v.09a5.67,5.67,0,0,0,2.14,2.18l.2,0,.08,0s0-.11-.14-.24a6.44,6.44,0,0,1-1.45-2,.49.49,0,0,0-.43-.21"/><path d="M88.56,64.64l.13,0c.47.16.89.33,1.23.48A3.48,3.48,0,0,1,91,65.9a20,20,0,0,1,2.1,2.57l.12.17c.53.74,1.09,1.51,1.74,2.26a.42.42,0,0,0,.34.16.26.26,0,0,0,.21-.09.45.45,0,0,0,0-.4,26.73,26.73,0,0,0-1.87-4.51,1,1,0,0,0-.84-.41h0v.09l.44.82,0,.19v0l0,0a.24.24,0,0,1-.22.14h0l-.17-.07,0,0,0-.05a8.18,8.18,0,0,0-1.17-1.39,2.1,2.1,0,0,0-.68-.46c-.42-.18-.94-.38-1.56-.61a8.71,8.71,0,0,1-1.15-.7c-.37-.32-.78-.68-1.22-1.1a.48.48,0,0,0-.24-.09.21.21,0,0,0-.19.12.63.63,0,0,0,0,.56,3.5,3.5,0,0,0,1.21,1.18,3.9,3.9,0,0,0,.73.31"/><path d="M104.05,81.43c-1.12-.7-1.91-1.21-2.53-1.66C97.16,76.47,92.74,73.28,88,70a.53.53,0,0,0-.25-.11s-.05,0-.08.08a.87.87,0,0,0,.45.83l14.06,10.32.17.11a1.27,1.27,0,0,1,.52.43c0,.11.14.39-.25.68a3,3,0,0,1-1.37.36,3.91,3.91,0,0,1-2.42-.93c-3.75-2.94-7.48-5.94-10.94-8.74a.41.41,0,0,0-.26-.11l-.08,0a.62.62,0,0,0,0,.53A1,1,0,0,0,88,74C91.63,77,95.29,80,98.84,82.87a4.59,4.59,0,0,0,2.37.65,4.81,4.81,0,0,0,3-1.22.6.6,0,0,0-.14-.87"/><path d="M98.81,80.7a9.81,9.81,0,0,0,1.61,1,.77.77,0,0,0,.32.07c.09,0,.14,0,.16-.06s0-.19-.2-.35L88.11,71.63l-.17-.07-.08.06c0,.1,0,.39.36.7Z"/><path d="M95.75,81.26l-8.18-6.85a.45.45,0,0,0-.25-.1l-.07,0c0,.07,0,.26.23.49,2.37,2.18,5,4.43,7.64,6.71a9.53,9.53,0,0,0,1.11.84,1,1,0,0,0,.45.12c.15,0,.27-.06.3-.15s0-.07,0-.16Z"/><path d="M89.43,63.4l.2,0,.08,0a.58.58,0,0,0,0-.15,2.33,2.33,0,0,0-.35-.56,1.42,1.42,0,0,0-.63-.4,1.38,1.38,0,0,0-.45-.09c-.1,0-.15,0-.16,0l0,.15a3.79,3.79,0,0,0,1.3,1"/><path d="M97.26,84.26a2.31,2.31,0,0,0,1.23-.36c.1-.09.15-.17.13-.24a.35.35,0,0,0-.21-.23l-.2,0-.25,0-.12,0a3.84,3.84,0,0,1-.55.06,2.78,2.78,0,0,1-1.86-.71c-2-1.68-3.58-3.12-5-4.4l-.14-.11c-1-1-2-1.87-3.1-2.78a.26.26,0,0,0-.21-.09h-.09a.42.42,0,0,0,0,.27c0,.09.09.15.23.3l.49.5c2.46,2.31,4.67,4.4,7,6.43a5.15,5.15,0,0,0,1.63,1.18,4.23,4.23,0,0,0,1,.13"/><path d="M86.19,76.32c1.8,2,3.7,3.9,5.82,5.92a2.78,2.78,0,0,0,1.45.86l.1,0s0-.09-.14-.17c-1.88-1.6-3.87-3.58-5.57-5.29-.11-.12-.22-.23-.33-.36l-.13-.12a6.59,6.59,0,0,0-1.07-1h-.18a.32.32,0,0,0,0,.22"/><path d="M94.33,84.59a2.31,2.31,0,0,0,.47-.07c.09,0,.12-.08.1-.16a.36.36,0,0,0-.37-.28,4,4,0,0,1-2.34-.89c-2.17-2-4.3-4.1-6.34-6.22-.09-.09-.15-.12-.2-.12h-.07a1,1,0,0,0,.13.59,1.58,1.58,0,0,0,.31.39l0,0c1.19,1.26,2.76,2.83,4.79,4.81a6.92,6.92,0,0,0,2,1.49,3.35,3.35,0,0,0,1.53.41"/><path d="M91.23,83.93c.1,0,.15-.05.15-.11a.5.5,0,0,0-.41-.41c-1-.17-2.29-1.64-3.67-3.2l-.73-.82-.15-.07-.11.14a.23.23,0,0,0,0,.24L89.23,83a2.65,2.65,0,0,0,2,.89Z"/><path d="M54.77,48.23h0a1,1,0,0,1,.4-.09.93.93,0,0,1,.44.11.65.65,0,0,0,.25.06.57.57,0,0,0,.33-.13,3.18,3.18,0,0,1,1.08-.84,1.81,1.81,0,0,1,.55-.09,1.84,1.84,0,0,1,1.16.42c.14.17.2.33.14.46s-.19.21-.44.25h-.45a5,5,0,0,0-1.15.16,1.93,1.93,0,0,0-1.51,2.14v0c0,.19,0,.68-.39.69a.77.77,0,0,1-.51-.27A2,2,0,0,1,54,49.61a2,2,0,0,1,.8-1.38m-1.28.92a1.65,1.65,0,0,0-.18,1.44,3.17,3.17,0,0,0,3.11,2.07h.07c.36,0,.63-.11.69-.26s-.1-.32-.19-.41a1.78,1.78,0,0,1-.73-2,2,2,0,0,1,1.94-1.2,2.67,2.67,0,0,1,.58,0,2.39,2.39,0,0,0,1.16-.33,2.65,2.65,0,0,1,1.62-.74,2,2,0,0,1,.75.16h0a.52.52,0,0,1,0,.8,1.2,1.2,0,0,1-.66.34,3.56,3.56,0,0,0-1.31.57c-.05.09-.08.16-.06.2s.06.06.33.11a2.38,2.38,0,0,0,.45.05,1.37,1.37,0,0,0,.47-.08A9.63,9.63,0,0,0,64,48.41c.26-.24.27-.4,0-.67a3.1,3.1,0,0,0-2.15-.92A3.73,3.73,0,0,0,61,47a5.14,5.14,0,0,1-1.18.17A2.51,2.51,0,0,1,59,47l-1.73-.51a2,2,0,0,0-.76-.16.93.93,0,0,0-.68.27l-.1.1a.73.73,0,0,0,.19.13c.16.15.22.3.17.43s-.31.24-.52.26l-.4,0a.69.69,0,0,0-.52.19,5.55,5.55,0,0,0-1.14,1.45"/><path d="M56.53,45.37a4.71,4.71,0,0,0,1.22.47l.12,0a.5.5,0,0,0,.34-.2,2.37,2.37,0,0,0,.42-1.06,3.42,3.42,0,0,1,.73-1.43l.18-.2a1.8,1.8,0,0,0,.47-.86,1.27,1.27,0,0,0-.41-1.51v.22l0,.08A3.51,3.51,0,0,1,58,43.38l-.35.25a5.5,5.5,0,0,0-1,.77.9.9,0,0,0-.39.67.4.4,0,0,0,.19.3"/><path d="M59.55,43.79c-.14,0-.23.07-.16.16.57,1,.31,1.39-.55,1.79-.32.09-.14.39.14.36a.56.56,0,0,0,.27-.05A1.33,1.33,0,0,0,60,44.1c-.14-.27-.34-.33-.45-.31"/><path d="M60.84,41.82c.15,0,.23-.25.27-.47s0-.81.37-.88.17.39.29.45.2-.05.24-.2a1.73,1.73,0,0,0-.6-1.38l-.08-.05s0,0-.11.16a7.46,7.46,0,0,0-.44,2.17c0,.14,0,.19.06.2"/><path d="M60.75,43.29h.07c2.32-1.08,2.8-2.47,2.89-3.21a2.06,2.06,0,0,0-.58-1.81l0,0h0a3.43,3.43,0,0,1-.61,3c-.52.42-1.12.88-1.73,1.32l-.27.2c-.09.07-.13.15-.09.24a.41.41,0,0,0,.36.23"/><path d="M63.62,43.41a8.44,8.44,0,0,1-1.79,1.06,2.3,2.3,0,0,0-.93.6.4.4,0,0,0-.06.16l.09,0h0a10.69,10.69,0,0,0,3.29-1.8c.69-.56.88-1.11.6-1.67a.22.22,0,0,0-.19-.11.38.38,0,0,0-.23.1c-.56.53-2.88,1.74-3.3,2.07-.16.12-.19.2-.19.24a.14.14,0,0,0,.2.12c.37-.09,1.9-1.07,2.26-1.25.52-.23.6-.15.63-.08s-.16.35-.41.54"/><path d="M60.41,46.57a3.07,3.07,0,0,0,.77-.18A18.42,18.42,0,0,1,64.4,45c.12,0,.29-.07.36,0a.47.47,0,0,1-.13.78l-1.38.62c-.08.06-.1.1-.1.11s.15.11.46.1h0c1.38-.32,1.9-.86,1.74-1.65a.75.75,0,0,0-.7-.45,2.34,2.34,0,0,0-1.18.2c-.69.28-1.74.87-2.37,1.1a4.26,4.26,0,0,0-.8.4c-.15.09-.57.46.06.37"/><path d="M64.77,40.39c.4-.34.79-1.28,1-.79A1.76,1.76,0,0,1,65.54,41c-.16.25,0,.39.19.49l.09,0s.08,0,.14-.11a3,3,0,0,0,.39-2.14,1.63,1.63,0,0,0-.6-1.06l-.19-.09a.34.34,0,0,0-.19.18l-.22.8a1.64,1.64,0,0,1-.43.77.94.94,0,0,0-.33.59c0,.22.12.1.38-.12"/><path d="M66.93,41.42a8,8,0,0,1,2,.86l.43.23c.51.27,1.09.57,1.71.84l.21.06c.07,0,.15-.07.23-.16h0a3,3,0,0,0,.85-1.69l0-.06h-.06a2.08,2.08,0,0,1-.66.12,2.27,2.27,0,0,1-.76-.14,8.6,8.6,0,0,0-3.55-1.15l-.15,0,0,0v0l0,.13.05,0a11.19,11.19,0,0,1,3.74,1.49l0,0c.1.06.31.19.33.3l0,.09a.36.36,0,0,1-.3.12l-.18-.07-.18-.09A25.06,25.06,0,0,0,67,41.06h0a.16.16,0,0,0-.17.11.29.29,0,0,0,.14.25"/><path d="M65.46,47.87c-.15,0-.43-.43-.55-.74l-.11-.07-.13.07a.28.28,0,0,0,0,.24,1.67,1.67,0,0,0,.63,1.07.59.59,0,0,0,.35.1.62.62,0,0,0,.59-.51,1.63,1.63,0,0,0-.66-1.37l0,.05a2.06,2.06,0,0,1,.23,1c0,.17-.17.16-.26.17"/><path d="M67.34,46.89c-.31,0-.74-.77-.87-1l-.16-.08h-.08a.47.47,0,0,0,0,.28A2.71,2.71,0,0,0,67,47.51a.69.69,0,0,0,.45.14,1.82,1.82,0,0,0,1.18-.75.8.8,0,0,0-.07-.86,6.21,6.21,0,0,0-2.48-1.63l-.09,0h0l0,0a8.8,8.8,0,0,0,.82.62l0,0a4.62,4.62,0,0,1,1,.86.58.58,0,0,1,.09.53.87.87,0,0,1-.57.43"/><path d="M65.82,43.46v0c.12.39,3.19,1.87,3.55,2a1.12,1.12,0,0,0,.48.14.69.69,0,0,0,.43-.21,1,1,0,0,0,.22-1.26,7.61,7.61,0,0,0-4.08-2.27h-.08v0l0,.08s.09.09.21.13a10.53,10.53,0,0,1,2.89,1.57l0,0c.18.15.38.31.32.59a1.17,1.17,0,0,1-.31.39l-.16.05a2.85,2.85,0,0,1-1-.39l-.19-.1h0a9.21,9.21,0,0,0-2.17-.93Z"/><path d="M95.54,41.13c0,.06,0,.2.23.38,4.94,3.57,8.89,8.7,12.06,15.71a.76.76,0,0,1-.08.61.44.44,0,0,1-.31.13,2,2,0,0,1-.93-.37,10.65,10.65,0,0,1-2.89-2.85,44.66,44.66,0,0,0-11.29-12,.43.43,0,0,0-.25-.13l-.1,0a.88.88,0,0,0,.3.75c3.42,2.33,7.18,6.61,11.48,13.1a6.78,6.78,0,0,0,5.9,3l.73-.05c.4-.09.45-.2.45-.2s0-.14-.23-.28a6.24,6.24,0,0,1-2.26-3.17A36.87,36.87,0,0,0,96.12,41.16a.79.79,0,0,0-.39-.12.2.2,0,0,0-.19.09"/><path d="M105.75,56.37a.94.94,0,0,0,.55.25.2.2,0,0,0,.17-.08c.08-.14,0-.45-.17-.83a41.32,41.32,0,0,0-12-13.6,1.21,1.21,0,0,0-.55-.14c-.19,0-.3.06-.31.1s0,.16.4.36c3.07,2.43,6.9,6,11.91,13.94"/><path d="M100.81,56.33a1.15,1.15,0,0,1-.8-.54,46.7,46.7,0,0,0-8.13-8.7l-.1-.07-.08.09a1.17,1.17,0,0,0,.07,1,46.91,46.91,0,0,1,5.51,5.76l.07.06a31.6,31.6,0,0,0,3,3.25,2.22,2.22,0,0,0,1.12.33,1.08,1.08,0,0,0,.86-.38,1,1,0,0,0,.14-.83A33.34,33.34,0,0,0,92.31,45c-.1-.1-.16-.14-.21-.14l-.06,0a1.22,1.22,0,0,0,.36,1A49.73,49.73,0,0,1,101,55.43c.17.32.2.56.1.73a.36.36,0,0,1-.31.17"/><path d="M91.17,49.12l-.08,0a.66.66,0,0,0,0,.58A41.39,41.39,0,0,1,96.92,56a.84.84,0,0,1,.14.92,1,1,0,0,1-.84.5,1,1,0,0,1-.68-.26C94.22,56,93,54.65,91.76,53.38c-.53-.55-1.08-1.14-1.59-1.65L90,51.66l-.15.14a.74.74,0,0,0,0,.65l3.92,4.19a5.12,5.12,0,0,0,1.93,1.45,4.13,4.13,0,0,0,.89.09,1.45,1.45,0,0,0,1.21-.49,1.56,1.56,0,0,0,.08-1.41,24.72,24.72,0,0,0-6.71-7.13Z"/><path d="M90.14,50.14a.55.55,0,0,0,0,.44A57.25,57.25,0,0,0,95.6,56l.14.05.11-.06a.25.25,0,0,0,0-.25,35.44,35.44,0,0,0-5.64-5.65Z"/><path d="M89.55,53.26a.48.48,0,0,0-.26-.09.31.31,0,0,0-.25.16.46.46,0,0,0,.13.44,15.66,15.66,0,0,1,3.33,3.59.85.85,0,0,1,.06.85.91.91,0,0,1-.79.4A1.62,1.62,0,0,1,91,58.4a20.06,20.06,0,0,1-3.17-2.74l-.23-.22a.37.37,0,0,0-.15.17.54.54,0,0,0,0,.51c1.76,1.94,3,3,3.54,3.24a6,6,0,0,0,1.3.16,1.36,1.36,0,0,0,1.1-.41,1.92,1.92,0,0,0,0-1.58,17.79,17.79,0,0,0-3.88-4.27"/><path d="M88.1,54.73l3.19,3,.23.07.16-.07,0-.11A13,13,0,0,0,88,54.06a.82.82,0,0,0,.15.67"/><path d="M87.82,61.39a2,2,0,0,0,1.58-.77,1.12,1.12,0,0,0,.1-1.08,14.77,14.77,0,0,0-2.62-2.93l-.12,0a.23.23,0,0,0-.19.15.29.29,0,0,0,0,.28,10.88,10.88,0,0,1,2,2.31.92.92,0,0,1-.07.87,1.12,1.12,0,0,1-1.46.3,13.41,13.41,0,0,1-2-1.85l-.12,0a.24.24,0,0,0-.19.13.44.44,0,0,0,0,.37,6.9,6.9,0,0,0,2.47,2.19,1.57,1.57,0,0,0,.63.11"/><path d="M86.93,59.42a.56.56,0,0,0,.33.13.36.36,0,0,0,.32-.19.4.4,0,0,0-.12-.44,7.78,7.78,0,0,0-1.65-1.54.43.43,0,0,0-.23-.07.3.3,0,0,0-.3.29c0,.13.1.25.27.43.53.57.91.94,1.38,1.39"/><path d="M85.61,61.3l-1.53-1.75-.15,0a.21.21,0,0,0-.19.12.4.4,0,0,0,0,.37l1,1.1a.63.63,0,0,1,.23.51c0,.35-.33.63-.65.9l0,0a1.67,1.67,0,0,0-.49.52.37.37,0,0,0,0,.37.25.25,0,0,0,.22.11l.17-.05,1.26-1.06a.84.84,0,0,0,.19-1.15"/><path d="M83.62,61.88l.14.08.16-.09a.28.28,0,0,0,0-.24l-.77-1.34L83,60.2a.34.34,0,0,0-.25.14l0,.19Z"/><path d="M83.83,39.49a2.08,2.08,0,0,0,.68.64,22.27,22.27,0,0,1,5.67,3,.61.61,0,0,1,.18.67.55.55,0,0,1-.51.32,1.23,1.23,0,0,1-.55-.15,17.21,17.21,0,0,0-4.63-2.49l-.06.09a.45.45,0,0,0,.31.46,25.12,25.12,0,0,1,5,2.92,1.24,1.24,0,0,0,.68.25.65.65,0,0,0,.54-.35c.35-1-.08-1.86-1.33-2.73a28,28,0,0,0-5.86-2.56Z"/><path d="M85.07,42.92,85,43a.51.51,0,0,0,.21.52c.39.27,1,.6,1.62,1,1.27.73,2.59,1.48,2.84,2a1.19,1.19,0,0,1,.06,1.17.67.67,0,0,1-.6.38,1,1,0,0,1-.48-.13l-2.85-1.65-.07,0h0a1.39,1.39,0,0,0,.43,1,14.78,14.78,0,0,0,2.06,1.4l.2.1a2.76,2.76,0,0,0,1.14.44.71.71,0,0,0,.43-.14,2.42,2.42,0,0,0,.47-2.53,19.59,19.59,0,0,0-5.34-3.55"/><path d="M88.39,47l.2,0c.18,0,.39-.09.35-.14-.4-.6-3.49-2.16-3.49-2.16a.65.65,0,0,0,.13.33A15.1,15.1,0,0,0,88.39,47"/><path d="M85.66,51.42l1.73,1.26a1,1,0,0,0,.55.19.7.7,0,0,0,.43-.15,2.76,2.76,0,0,0,.79-1.11A1.34,1.34,0,0,0,88.6,50l-2.35-1.72-.11,0-.07.06a.57.57,0,0,0,.09.54A11.64,11.64,0,0,1,88,50.38a1,1,0,0,1,.15,1,.59.59,0,0,1-.5.37.72.72,0,0,1-.46-.18l-1.41-.86c-.07,0-.13.07-.17.17a.49.49,0,0,0,.08.54"/><path d="M87.05,50.81a.29.29,0,0,0,.28-.19.3.3,0,0,0-.08-.32l-1.14-.65-.16.11V50l1,.81Z"/><path d="M83.5,54.59a.43.43,0,0,0,.08.44l1.74,1.28a.67.67,0,0,0,.35.1,1.13,1.13,0,0,0,.7-.36l.23-.37c.46-.73.79-1.26.26-2a4.69,4.69,0,0,0-1.7-1.45.22.22,0,0,0-.16.14.58.58,0,0,0,.06.55l.89.94a.93.93,0,0,1,0,.94.88.88,0,0,1-.71.5.66.66,0,0,1-.4-.13l-1-.7-.14-.08c-.09,0-.18.09-.22.23"/><path d="M84.19,53.53a.31.31,0,0,0,.09.3l.62.45.16.06c.11,0,.16-.11.18-.15a.32.32,0,0,0-.09-.34l-.6-.46-.11,0a.28.28,0,0,0-.25.17"/><path d="M81,56.93a.21.21,0,0,0-.18.11.56.56,0,0,0,0,.5l1.31,1.53a.69.69,0,0,0,.51.2,2.12,2.12,0,0,0,1.53-1.18,1.32,1.32,0,0,0,.13-1.31A8.45,8.45,0,0,0,83,55.12l-.12-.07s-.12.07-.18.17a.61.61,0,0,0,0,.57l.61.8a1.12,1.12,0,0,1-.1,1,.77.77,0,0,1-1.21.24l-.8-.87Z"/><path d="M82.52,57.37a.27.27,0,0,0,.23-.15.27.27,0,0,0,0-.26L82,56.28l-.11,0a.23.23,0,0,0-.19.13.31.31,0,0,0,0,.28l.73.69Z"/><path d="M84.9,74.87c0,.18.09.46.33.46a.82.82,0,0,0,.55-.32c1.45-1.88,1-7.78-.88-10.7l-.13-.06a.28.28,0,0,0-.21.14.53.53,0,0,0,0,.52c1.43,3.26,1.91,5.72,1.5,7.78-.07.23-.18.54-.43.55s-.36-.13-.49-.75A14.46,14.46,0,0,0,83,66.54a1.87,1.87,0,0,0,0,1.17,18.75,18.75,0,0,1,1.85,7.16"/><path d="M83.68,65l-.06,0a1.2,1.2,0,0,0-.07.8A12.8,12.8,0,0,1,85.3,70.6l.06.09.12-.12A13.25,13.25,0,0,0,83.72,65Z"/><path d="M74.81,38l.79.34c.43.22.87.46,1.29.71,1.64.93,2.67,2,3.37,5.25l.08.34c.68,3.11,1.1,5-2,7.49a.78.78,0,0,0-.11.79.39.39,0,0,0,.35.25h0a5.91,5.91,0,0,0,2.46-2.34c1.82-2.46-.19-8-.85-9.84a4.77,4.77,0,0,0-2.72-2.67L74,36.66a1.29,1.29,0,0,1-.53-1.1c0-.42.32-.5.78-.75a3.34,3.34,0,0,1,1.5-.3c.42,0,.85,0,1.28.06a30.6,30.6,0,0,1,15.61,5.18l0,0a.6.6,0,0,1,.12.63c-.12.26-.48.39-1.18.42a1.27,1.27,0,0,1-1-.38l-.45-.73c0-.12-.09-.17-.14-.17s-.13.06-.17.19l-.18,1c0,.15,0,.21.17.23a6.86,6.86,0,0,0,2.22.36A5.74,5.74,0,0,0,95.64,40c.16-.23.23-.42.18-.51s-.27-.19-.59-.21l-.37,0a5.41,5.41,0,0,1-3.2-1A32.12,32.12,0,0,0,75.07,34a3,3,0,0,0-1.45.27,1.81,1.81,0,0,0-1,1.21,1.73,1.73,0,0,0,.43,1.45,3.91,3.91,0,0,0,1.72,1"/><path d="M48.93,49.6c.26.77.63,1.18,1.16,1.26h2.25a.47.47,0,0,0,.36-.44.39.39,0,0,0-.26-.39l-1.79,0c-.68,0-1-1-1.27-1.91-.54-2,.44-3.47,1.41-4.67l.15-.21-.13,0h0a.37.37,0,0,1-.18-.25.58.58,0,0,1,.19-.41l.31-.28,0-.1-.18-.06h0a9.47,9.47,0,0,0-2.67,2.43,1.49,1.49,0,0,0-.18,1.43Z"/><path d="M53.52,47.84l-.1,0a3.9,3.9,0,0,1-1.15.21,1.83,1.83,0,0,1-1.4-.52l-.13,0-.12.08a.39.39,0,0,0,0,.37,1.86,1.86,0,0,0,1.38.71A2.39,2.39,0,0,0,53.4,48c.11-.08.13-.17.12-.2"/><path d="M50.3,45.78a.82.82,0,0,0,0,.69.58.58,0,0,0,.41.3,2,2,0,0,0,.41,0,5.76,5.76,0,0,0,3.24-1.55l.1-.15-.11,0a7,7,0,0,1-2.83,1,.49.49,0,0,1-.38-.27c-.08-.2,0-.48.26-.86a8.39,8.39,0,0,0,1.07-1.15.28.28,0,0,0,0-.36,1.29,1.29,0,0,1,0-.4,1.36,1.36,0,0,1,0-.29,1.07,1.07,0,0,1,.24-.61,2.39,2.39,0,0,1,.54-.45.39.39,0,0,0,.16-.45.61.61,0,0,0-.56-.4c-.66.25-.9.58-.81,1.14a1.7,1.7,0,0,1-.33,1.53,9.07,9.07,0,0,0-1.37,2.2"/><path d="M53,42.68a.38.38,0,0,0,0,.38,1.31,1.31,0,0,1,.23,1.36l0,0a1.31,1.31,0,0,0,.49-.8,1.29,1.29,0,0,0-.27-.93c-.08-.1-.2-.23-.32-.2a.34.34,0,0,0-.2.22"/><path d="M70.23,97.8c.83.53,1.31,1.85,1.81,3.25.6,1.69,1.22,3.42,2.5,3.74a2,2,0,0,0,.5.09h.08a.59.59,0,0,0-.16-.15c-.79-.27-1.22-1.56-1.73-3.06-.58-1.77-1.25-3.77-2.57-4.18l-.43,0a.47.47,0,0,0-.27,0s0,.13.27.3"/><path d="M72.57,97.46a1.38,1.38,0,0,0-.34.05.5.5,0,0,0,.15.16c.88.48,1.43,1.93,2,3.45.69,1.84,1.4,3.74,2.71,3.71h0l.28,0,0,0c-.78-.37-1.27-1.72-1.79-3.15-.69-1.84-1.45-3.92-3-4.15"/><path d="M76.9,101.5l0,.06c.54,1.46,1.2,3.29,2.64,3.32l.17,0,0,0a5.65,5.65,0,0,1-1.72-2.9c-.37-1.11-.69-2.07-1.84-2.39l-.15,0a.34.34,0,0,0-.14,0l.09.15c.4.21.65.91,1,1.8"/><path d="M72.64,96.51l.23,0,.24,0c.41,0,.44-.34.44-.42a.38.38,0,0,0-.3-.38,5.86,5.86,0,0,0-.93,0h0a5.68,5.68,0,0,1-2-.22l-.25-.09a.7.7,0,0,0-.38-.09c-.12,0-.29,0-.35.14a.59.59,0,0,0,0,.54c.35.44,1.13.65,2.35.62.31,0,.63,0,.9,0"/><path d="M85,96.37a1.52,1.52,0,0,0-1.54-1A1.69,1.69,0,0,0,81.72,97a.42.42,0,0,0,.09.32.46.46,0,0,0,.33.13.4.4,0,0,0,.38-.26c.14-.79.61-.88.8-.89a.82.82,0,0,1,.77.53.67.67,0,0,1-.28.77.89.89,0,0,0-.39,1.27,2.94,2.94,0,0,1,0,3.06,1,1,0,0,0,.58,1.41l0,0a.56.56,0,0,1,.09.61.79.79,0,0,1-1.48-.19.49.49,0,0,0-.47-.44.41.41,0,0,0-.35.18.39.39,0,0,0-.06.36c.49,1,1.09,1.48,1.84,1.47a2.58,2.58,0,0,0,1.06-.28,1.41,1.41,0,0,0,.55-1,1.36,1.36,0,0,0-.33-1c-.39-.21-.46-.69-.23-1.42a2.68,2.68,0,0,0,0-2.49,1.21,1.21,0,0,1,.19-1.39A1.31,1.31,0,0,0,85,96.37"/><path d="M69,103.24a.54.54,0,0,0-.49-.34.27.27,0,0,0-.18.07l-.41.73a.63.63,0,0,1-.57.37.69.69,0,0,1-.55-.26.66.66,0,0,1-.11-.6,1.32,1.32,0,0,1,.53-.76,1.09,1.09,0,0,0,0-1A3.51,3.51,0,0,1,67,99.05L67.29,98A.84.84,0,0,0,67,97a.76.76,0,0,1-.37-.88.69.69,0,0,1,.62-.5.72.72,0,0,1,.29.06.81.81,0,0,1,.46.54,1.63,1.63,0,0,0,.11.23.64.64,0,0,0,.5.28.3.3,0,0,0,.25-.12.69.69,0,0,0,0-.59A1.77,1.77,0,0,0,67,94.73a1.44,1.44,0,0,0-1.05.42,1.36,1.36,0,0,0-.36,1,1.18,1.18,0,0,0,.39,1l0,0a1.39,1.39,0,0,1,0,1.54,2.62,2.62,0,0,0,0,2.11,2.22,2.22,0,0,1,0,1.74l-.13.25a1.12,1.12,0,0,0-.18,1A1.43,1.43,0,0,0,67.19,105a2.18,2.18,0,0,0,1.07-.32,2,2,0,0,0,.75-1.41"/><path d="M81.5,105.32a.91.91,0,0,0-.53.19,1.94,1.94,0,0,1-1,.27h-.22c-3.16,0-6.29,0-9.56-.19a2.44,2.44,0,0,1-.94-.27,1.7,1.7,0,0,0-.64-.16.4.4,0,0,0-.32.13.63.63,0,0,0,0,.54c.64.92,5.94.83,7.93.8l2,0c.69,0,1.37,0,1.72,0a3.62,3.62,0,0,0,1.8-.53.37.37,0,0,0,.19-.43.51.51,0,0,0-.51-.34"/><path d="M70.13,39.3c3,.69,5.19,1.67,5.76,4.22,0,1,.24,1.68.61,1.95l.09.06,0-.23c.06-2.54-.75-4.24-2.42-5.07a12.23,12.23,0,0,0-3.71-1.5,1.22,1.22,0,0,1-1.09-1.37,1.62,1.62,0,0,1,1.5-1.6h.18c.27,0,.41-.13.41-.2s-.06-.1-.17-.13h-.37c-1,0-2,.25-2.11,1.86-.15,1.19.27,1.82,1.3,2"/><path d="M70.55,36.67l0,0c.54,0,.75.21.76.4s-.18.46-.76.51l-.11,0a.53.53,0,0,0,.18.1,4.54,4.54,0,0,0,.6,0,1.11,1.11,0,0,0,1-.38.38.38,0,0,0,0-.42,1,1,0,0,0-1-.42,2.59,2.59,0,0,0-.61.1"/><path d="M74.76,39.65a.7.7,0,0,0,.48.15.71.71,0,0,0,.43-.12l-.07-.08a3.5,3.5,0,0,0-3.31-.91c-.31.16,2.1.1,2.47,1"/><path d="M75.27,44.5a5.21,5.21,0,0,0-2.13-2.2c-.22-.11-.26.09-.22.13a7.91,7.91,0,0,1,2.77,4.33,1.16,1.16,0,0,1-.21.94l-.13.12a2.94,2.94,0,0,0-.39.4.33.33,0,0,0,0,.39.44.44,0,0,0,.43.26h.11l1.46-1.11a.59.59,0,0,0,.17-.43A.5.5,0,0,0,77,47a5.68,5.68,0,0,1-1.72-2.5"/><path d="M71.11,45.57H71a.4.4,0,0,0,0,.22A17.35,17.35,0,0,1,71.39,50a.33.33,0,0,0,.09.27.79.79,0,0,0,.58.15,4.65,4.65,0,0,0,1.5-.67,1.16,1.16,0,0,0,.61-1.08A8.62,8.62,0,0,0,72.32,44c-.09-.09-.14-.11-.18-.11h0a.46.46,0,0,0,.05.32c1.24,2.28,1.56,3.7,1,4.62a1.37,1.37,0,0,1-.8.43c-.19,0-.43-.1-.52-.6a10.18,10.18,0,0,0-.64-3.06Z"/><path d="M72.8,48a1.08,1.08,0,0,0,0-.4,9.6,9.6,0,0,0-1.26-3.18l0,0,0,.16a19.06,19.06,0,0,1,.92,3.61s.26.31.34-.14"/><path d="M74.64,47.1c.19.37.41-.12.37-.26-.43-1.43-1.78-3.59-2.1-3.45a16.73,16.73,0,0,1,1.73,3.71"/><path d="M68.26,49.93l.23-1.75a.27.27,0,0,0-.09-.27s-.12.06-.2.22c-.26.56-.91,2.41-.54,3.08a.43.43,0,0,0,.34.22,3.17,3.17,0,0,0,.52,0A1.91,1.91,0,0,0,70,50.89c.75-.81.63-2.45.53-3.9l0-.3c-.06-.28-.16-.4-.24-.4l-.14.09a.53.53,0,0,0-.12.41,7.18,7.18,0,0,1-.36,3.12,1.15,1.15,0,0,1-.86.66c-.24,0-.5-.16-.52-.64"/><path d="M69.33,49.19a10.34,10.34,0,0,0,0-1.85c0-.11-.07-.11-.1-.11a.21.21,0,0,0-.17.18,9.82,9.82,0,0,1-.21,1.78.27.27,0,0,0,0,.24l.13,0a.32.32,0,0,0,.32-.29"/><path d="M68.48,44.07a.24.24,0,0,0,.2,0l.07-.1a.28.28,0,0,0-.16-.34,17.91,17.91,0,0,0-2.15-.88c-.09,0-.11,0-.12.05a.18.18,0,0,0,.11.19,19.64,19.64,0,0,1,2,1"/><path d="M64.44,51.4a1.38,1.38,0,0,0,1,.29,1.48,1.48,0,0,0,1.44-1l.48-2a.27.27,0,0,0,0-.24l-.16-.06c-.19,0-.44.19-.53.58A4.69,4.69,0,0,1,66,50.77a.47.47,0,0,1-.39.24.31.31,0,0,1-.3-.16.32.32,0,0,1,0-.36,2.51,2.51,0,0,0,.45-1,.23.23,0,0,0,0-.23l-.09,0a.38.38,0,0,0-.23.14,8,8,0,0,1-.94,1.38c-.17.27-.19.46,0,.62"/><path d="M59.07,49.37a1.05,1.05,0,0,0-.46-.12c-.17,0-.29.06-.33.14s0,.17.09.22c2.07,1.48,2.6,3.32,1.58,5.47a.34.34,0,0,0,0,.27l.06,0a.66.66,0,0,0,.35-.17c1.33-2.12.91-4-1.29-5.83"/><path d="M40.93,58.59c0,.17.09.28.22.34l.12,0a.45.45,0,0,0,.36-.22.47.47,0,0,0,0-.43c-.41-.7-.11-1,.24-1.4l0,0a3,3,0,0,0,.32-.37.43.43,0,0,0,.13-.39.31.31,0,0,0-.34-.27.54.54,0,0,0-.34.12,4.87,4.87,0,0,1-.74.58l-.12.08-.13.09-.17.09c-.07,0-.26.18-.07.58a7.52,7.52,0,0,1,.51,1.19"/><path d="M42.47,59.25a.59.59,0,0,0,.44.29.23.23,0,0,0,.2-.11.77.77,0,0,0,.06-.65c-.41-1,0-1.27.53-1.76l.09-.06a.42.42,0,0,0,0-.39.32.32,0,0,0-.31-.16.57.57,0,0,0-.27.07c-1.08.66-1.25,1.32-.77,2.77"/><path d="M43.76,58.41,44,59.69a.45.45,0,0,0,.41.32.34.34,0,0,0,.28-.14.56.56,0,0,0,.07-.43A1.33,1.33,0,0,1,44.84,58l.46-.44a.45.45,0,0,0,.05-.43.4.4,0,0,0-.35-.2l-.2,0-.61.53a.85.85,0,0,0-.43,1"/><path d="M57.37,50.17a.53.53,0,0,0-.27-.08.44.44,0,0,0-.41.29.73.73,0,0,0,.18.78,3.91,3.91,0,0,1,1.61,2,2.52,2.52,0,0,1-.56,2.15L53.9,59c-2.67,2.56-3,4.87-1.15,7.06l.14.07a.69.69,0,0,0-.1-.31c-1.44-3,.5-4.65,3-6.78l0,0a26.78,26.78,0,0,0,3.57-3.52c.92-1.86.27-3.62-2-5.37"/><path d="M58.94,65.34a16.08,16.08,0,0,0-1.84.14l-.17,0a11.17,11.17,0,0,1-1.16.12c-1.09,0-1.86-.37-2.31-2.37,0-.27-.06-.37-.16-.44a.53.53,0,0,0-.24.46c0,2.61,1.78,2.66,4.28,2.72.72,0,1.54,0,2.39.14a3.32,3.32,0,0,1,2.5,2.29A3,3,0,0,1,61,71.34c-.23.21-.32.41-.26.57a.62.62,0,0,0,.59.29.64.64,0,0,0,.37-.1,3.64,3.64,0,0,0,1.42-3.75,4,4,0,0,0-3.39-3c-.27,0-.52,0-.77,0"/><path d="M54.42,55.55a8,8,0,0,0-4.62,8.5,5.55,5.55,0,0,0,5,4.67l4.46,0a.76.76,0,0,1,.67.39c.1.17.14.48-.16,1a.45.45,0,0,0-.1.35l.11,0a.66.66,0,0,0,.39-.18,1.57,1.57,0,0,0,.53-1.7,1.39,1.39,0,0,0-1.37-.86l-2,.06c-2.07,0-3.14-.1-3.66-.46a5,5,0,0,1-2.94-4.4c-.09-2.53,1.53-5.12,4.24-6.75,1.26-.8,2.74-1.82,3-2.56a.73.73,0,0,0,0-.56l-.09,0a.48.48,0,0,0-.27.13,9.72,9.72,0,0,1-3.2,2.4"/><path d="M46.73,64.43a2.07,2.07,0,0,0,.48,2.28,20,20,0,0,0,2.4,1.72A3.51,3.51,0,0,1,51,71.13v0c0,.25.08.51.14.77a2,2,0,0,0,1.8,1.65h.13a.34.34,0,0,0,.36-.23c0-.13-.11-.22-.2-.26-.95-.35-1.36-.74-1.45-1.36-.3-1.39-.73-3-1.4-3.55A19,19,0,0,1,48,66.44a1,1,0,0,1-.51-.59c-.25-.73.08-1.95,1-3.74a3.86,3.86,0,0,0-2.25-4.33.55.55,0,0,0-.24,0c-.13,0-.15,0-.16.07a.38.38,0,0,0,.15.36c1.66,1.28,2.69,2.47.8,6.26"/><path d="M47.42,69.36a3.22,3.22,0,0,1,1.63,2.9c.22,2.91,1.68,4.38,4.34,4.33h0a2.76,2.76,0,0,0,1.19-.32c.1,0,.12-.09.12-.13s-.06-.3-.27-.53a.78.78,0,0,0-.63-.3,1.43,1.43,0,0,0-.36.07l-.05,0a2.32,2.32,0,0,1-.71.15,2,2,0,0,1-.59-.1,3,3,0,0,1-2.32-2.93c0-1.65-.4-2.77-1.32-3.33a7.72,7.72,0,0,1-2.7-2.38,3.27,3.27,0,0,1,.16-3.46c.09-.2.21-.42.31-.67a3.37,3.37,0,0,0,.28-1.44c0-1.46-.38-2.26-1.15-2.47h-.15c-.08,0-.22,0-.26.11s0,.27.27.55c1,.78.94,2.12-.07,4.32-.62,1.38-.69,2.47-.2,3.26a8.87,8.87,0,0,0,2.46,2.36"/><path d="M56,76.24a1.71,1.71,0,0,0,.25,0s.07-.06,0-.16a1.87,1.87,0,0,0-.77-.2c-.08,0-.09,0-.09,0a.6.6,0,0,0,.57.35"/><path d="M57.64,75.91a.33.33,0,0,0-.08-.21,1.64,1.64,0,0,0-1-.28h-.14c-.09,0-.11.08-.11.09s0,.09.08.18a1.38,1.38,0,0,0,.94.31h.14Z"/><path d="M57.82,74.83l-.23.07,0,.13a1,1,0,0,0,1,.54,2.44,2.44,0,0,0,.39,0l.08-.06s0-.07-.06-.15a1.51,1.51,0,0,0-1.19-.48"/><path d="M58.42,72.24A1.07,1.07,0,0,0,59,72a5,5,0,0,0,.43-.37.2.2,0,0,0,0-.32,1,1,0,0,1-.24-1.24.33.33,0,0,0,0-.31s0,0-.12,0H59a1.3,1.3,0,0,0-.41.24h0a1.62,1.62,0,0,0-.72,1.74c.07.35.24.51.55.51Z"/><path d="M55.18,75.25a.49.49,0,0,0,.16,0v0a1.54,1.54,0,0,1-.52-1.38,2.82,2.82,0,0,0-.61-1.71.63.63,0,0,0-.13.21.76.76,0,0,0,0,.62,1.21,1.21,0,0,1,.23,1c-.09.79.2,1.2.89,1.33"/><path d="M56.24,74.86l.17,0c.24-.1.24-.17.24-.17s0,0-.12-.13A1.36,1.36,0,0,1,55.86,73a1.18,1.18,0,0,0-.18-1.16,1.19,1.19,0,0,1-.24-1.09l0-.07a1,1,0,0,0-.26.08.75.75,0,0,0-.38.45,1.79,1.79,0,0,0,.32,1.19,1.08,1.08,0,0,1,.25,1,1.64,1.64,0,0,0,.41,1.27.66.66,0,0,0,.5.24"/><path d="M57.8,69.91c.13-.13.13-.18.13-.18l-.11-.06a1.53,1.53,0,0,0-.43,0,1.4,1.4,0,0,0-1.21.56,1.16,1.16,0,0,0,.07,1.17,1,1,0,0,1,.12,1.07,1.43,1.43,0,0,0,0,1,1.39,1.39,0,0,0,1,.8.62.62,0,0,0,.3-.06l-.07-.1a.59.59,0,0,1,0-.88.29.29,0,0,0,.14-.22c0-.09-.06-.2-.19-.33a1.8,1.8,0,0,1,.23-2.71"/><path d="M62.27,74.89a2.5,2.5,0,0,1,1.13-.78,4.14,4.14,0,0,0,1.28-1,2.21,2.21,0,0,0-.55-2.79.48.48,0,0,0-.26-.09.38.38,0,0,0-.28.17.65.65,0,0,0-.06.51l.43.73a.93.93,0,0,1-.44,1.3,7.78,7.78,0,0,0-2.07,1.41.69.69,0,0,1-.55.35.65.65,0,0,1-.44-.17l-.75-.65a.5.5,0,0,1-.11-.49.34.34,0,0,1,.33-.18.61.61,0,0,1,.23,0l.54.24.16.06s.1,0,.13-.16a1.07,1.07,0,0,0-.71-1.1,1.7,1.7,0,0,0-.42-.06,1.89,1.89,0,0,0-1.5,1c-.39.59.43,1.18,1.29,1.81.23.16.52.38.76.57a1.05,1.05,0,0,0,.5.15.72.72,0,0,0,.37-.11,3,3,0,0,0,1-.78"/><path d="M64.5,75.88a.6.6,0,0,1,.18,0,5.93,5.93,0,0,1,1.95.71c.16.07.32,0,.34-.09a.28.28,0,0,0-.17-.24,5.73,5.73,0,0,0-2.95-1,3.28,3.28,0,0,0-.84.13.79.79,0,0,0-.51.61.38.38,0,0,0,.23.34l1.88.5,1.29.56.12,0c.13,0,.25-.07.27-.13l-.09-.21a5.17,5.17,0,0,0-1.64-.74c-.39-.11-.39-.27-.38-.32s0-.18.32-.18"/><path d="M65.59,73.33a2,2,0,0,0-.65.65.81.81,0,0,0,0,.71c.33.68,1.67,1,2.32,1.18h.1c.18,0,.31-.06.34-.16l-.08-.17h0a4.4,4.4,0,0,1-1.7-1.07.63.63,0,0,1-.06-.65c.08-.17.31-.26.61-.26a2.48,2.48,0,0,1,.87.15h0l.15-.08a.27.27,0,0,0-.06-.25,1.36,1.36,0,0,0-.67-.37,1.52,1.52,0,0,0-1.17.31"/><path d="M66.75,74.05h0a.2.2,0,0,0-.22.14.26.26,0,0,0,.08.28,6.94,6.94,0,0,0,1.76.78h.07a.16.16,0,0,0,.16-.14.25.25,0,0,0-.14-.28,7.43,7.43,0,0,0-1.69-.78"/><path d="M67.1,78.88h.07a3.24,3.24,0,0,0,.72-.08,7.35,7.35,0,0,1,2.59-.58c.19,0,.31-.11.32-.24s-.09-.24-.31-.29l-.37,0a9.64,9.64,0,0,0-2.38.5l-.16,0a.23.23,0,0,1-.25-.13c-.08-.15,0-.38.15-.53A5.6,5.6,0,0,1,70,76c.19-.08.25-.22.22-.33s-.05-.23-.34-.22a5.14,5.14,0,0,0-3.31,2.14,1,1,0,0,0-.16,1,.71.71,0,0,0,.65.35"/><path d="M68.85,76.94c-.07.12-.11.21-.09.25s.22.14.47.14A2.1,2.1,0,0,0,70.41,77l.09-.14v0c0-.05-.18-.13-.57-.13a1.84,1.84,0,0,0-1.07.28"/><path d="M66.19,71.54c-.14-.17-.17-.31-.11-.43s.26-.19.4-.2l.11,0,0-.08a1.89,1.89,0,0,0-1.32-.73c-.13,0-.16,0-.18.12-.07,1,.51,1.72,1.74,2.2l.16,0,.09,0,0-.08Z"/><path d="M64.68,66.78l0,.1a3.25,3.25,0,0,0,.78,2.48,1.56,1.56,0,0,0,1,.53.28.28,0,0,0,.21-.1.64.64,0,0,0,0-.56,1,1,0,0,0-.52-.5.27.27,0,0,1-.24.16c-.3,0-.59-.47-.59-1a1,1,0,0,0-.59-1.13"/><path d="M67.65,70.31a.89.89,0,0,0-.42-.32h0l0,0v.13c.28,1.73.76,3.63,2.21,4.61a.86.86,0,0,0,.4.09c.4,0,.54-.41.58-.54a2.81,2.81,0,0,0-.28-1.71.41.41,0,0,0-.31-.17c-.1,0-.15,0-.15.14l0,.88a.4.4,0,0,1-.1.31l-.14.07h0A.52.52,0,0,1,69,73.7a4.21,4.21,0,0,1-1.17-2.88.77.77,0,0,0-.22-.51"/><path d="M72.26,78.89a1.34,1.34,0,0,0,.55.12.61.61,0,0,0,.49-.23,2.77,2.77,0,0,0,.19-2v0a1.62,1.62,0,0,0-.35-.51l-.09,0a.59.59,0,0,0-.08.2l0,1.15c0,.32-.1.48-.28.48a.59.59,0,0,1-.35-.15,7.35,7.35,0,0,1-.85-3.69c0-.46-.28-.74-.43-.74s-.15.13-.15.34c0,1.85.15,3.9,1.39,5Z"/><path d="M72.34,76.78l.07,0a.88.88,0,0,0,.09-.45l-.14-.93a.38.38,0,0,0-.28-.23c-.11,0-.14.12-.17.19a1.66,1.66,0,0,0,.24,1.31.33.33,0,0,0,.19.13"/><path d="M69,72.69c.1,0,.14-.24.15-.28a1.13,1.13,0,0,0-.23-.67c-.1-.11-.15-.13-.17-.13l-.15.13a1,1,0,0,0,.13.75.38.38,0,0,0,.27.2"/><path d="M76.09,40.35H76c-.13,0-.18.11-.18.14s.08.2.42.2a1.5,1.5,0,0,1,1.67,1,.51.51,0,0,1,0,.52c-.09.15-.18.2-.47.2h0l0,.17a.81.81,0,0,0,.45.15.6.6,0,0,0,.49-.24.78.78,0,0,0,.06-.71,2.11,2.11,0,0,0-2.28-1.39"/><path d="M77.12,41.88c.1,0,.14-.11.14-.19s-.14-.44-.52-.48c-.09,0-.12.07-.12.08s0,.14.2.41a.5.5,0,0,0,.3.18"/><path d="M77.62,43.46a.19.19,0,0,0-.21.18.31.31,0,0,0,.16.24c.9,0,1.24.55,1.23,1.69-.12.55-.35.52-.55.52a1.1,1.1,0,0,1-.52-.14.27.27,0,0,0-.28.1s0,.08,0,.18a1.74,1.74,0,0,0,1.24.47.53.53,0,0,0,.36-.11c.35-.26.45-.75.27-1.55a1.63,1.63,0,0,0-1.71-1.58"/><path d="M78,45.34a.22.22,0,0,0,.18-.1c0-.37-.06-.53-.14-.59a.59.59,0,0,0-.35,0c-.16.07-.27.13-.29.2s0,.19.11.31a.9.9,0,0,0,.49.23"/><path d="M78.22,51l.14,0a3.3,3.3,0,0,0,1.52-2.11,1.38,1.38,0,0,0-.22-1.09,1.81,1.81,0,0,0-1.31-.48h-.17a.49.49,0,0,0-.5.28.28.28,0,0,0,.09.27l.83.17a.77.77,0,0,1,.47.38,1.63,1.63,0,0,1-.23,1.14c-.6.74-.89.78-.77,1.26,0,.22.11.22.15.22"/><path d="M77.86,49.19l.31,0c.33,0,.36-.12.36-.21,0-.48-.26-.47-.35-.47a1.48,1.48,0,0,0-.37.07.36.36,0,0,0-.23.28c0,.12.11.23.28.3"/><path d="M80.21,38.65h0l-.13.05a3.22,3.22,0,0,0,1.76.65c.27,0,.37-.09.4-.13a.3.3,0,0,0,0-.23,6.33,6.33,0,0,0-5.9-3.15c-.29,0-.61,0-.92,0-.12,0-.2.06-.2.09s.39.42.82.44.65-.06,1-.07a4.47,4.47,0,0,1,3.7,1.44c.19.25.25.44.16.61s-.3.26-.65.26"/><path d="M78.76,37.37a5,5,0,0,0-.6.05c-.08,0-.11,0-.11.07s0,.13.23.22a2.19,2.19,0,0,0,.81.15,1.14,1.14,0,0,0,.43-.08c.13-.07.13-.11.13-.12s0-.07-.21-.19a1.77,1.77,0,0,0-.68-.1"/><path d="M84,38a1,1,0,0,1-.56-.25,4.12,4.12,0,0,0-2-1.3l-.23,0,0,0A7.11,7.11,0,0,0,85,39a1.81,1.81,0,0,0,.36,0,.34.34,0,0,0,.24-.08.23.23,0,0,0,.05-.2,1.74,1.74,0,0,0-1.34-1.65.78.78,0,0,1,0,.71A.36.36,0,0,1,84,38"/><path d="M86.66,94.82a.74.74,0,0,0,.33-.09l.12-.08a.55.55,0,0,1-.35-.43,1.19,1.19,0,0,1,.44-1c2.1-1.11,2.76-2.09,2.48-3.76a.25.25,0,0,0-.06-.21.58.58,0,0,0-.41-.14.62.62,0,0,0-.6.37,3.58,3.58,0,0,1-1.16,2.32,12.3,12.3,0,0,1-5.93,1.79,2,2,0,0,0-2,1.17l-.74,1.86a.83.83,0,0,1-.84.75l-1.82-.17a.68.68,0,0,1-.48-.21.55.55,0,0,1-.12-.45A14.47,14.47,0,0,1,76.17,92,1.66,1.66,0,0,0,76,90.68c-.07-.11-.15-.16-.19-.16s-.11,0-.23.29c-.66,1.22-1,3.26-1,6.21,0,.57.13.9.64,1l3.78.28c.55,0,.8-.22.82-.68.19-1.93.83-2.92,1.88-3,.86-.15,1.88-.32,3-.49l.23,0c.44,0,.63.14.72.28a2.17,2.17,0,0,0,1,.36"/><path d="M84.59,88.33h-.16c-.53.13-.68.45-.64.72a.5.5,0,0,0,.44.46.52.52,0,0,0,.3-.11,3.3,3.3,0,0,1,1.21-.83,2.75,2.75,0,0,0-1.15-.25"/><path d="M83.77,91.93a.75.75,0,0,0,.26,0,2.58,2.58,0,0,0,1.08-.67,5,5,0,0,1-1.5-.27h-.14a.39.39,0,0,0-.41.41.55.55,0,0,0,.18.39.64.64,0,0,0,.53.19"/><path d="M82.25,89.09a3.48,3.48,0,0,1,.89-1.18h-.33a2.57,2.57,0,0,0-1,.21c-.36.22-.51.5-.43.78a.57.57,0,0,0,.53.42.45.45,0,0,0,.38-.22"/><path d="M77.62,95.14a.38.38,0,0,0,.36-.31,3.18,3.18,0,0,1,.49-1.39A2.36,2.36,0,0,0,77.3,94a.72.72,0,0,0-.19.82.59.59,0,0,0,.51.34"/><path d="M93.77,93.7a3.21,3.21,0,0,1,1.75-.54,3.27,3.27,0,0,0-1.68-.82c-1.49,0-1.08,1.8-.07,1.36"/><path d="M95.81,91.28a3.92,3.92,0,0,1,.35-1.43,2.19,2.19,0,0,0-1.11.6.76.76,0,0,0-.18.82.61.61,0,0,0,.55.35.4.4,0,0,0,.39-.34"/><path d="M98.58,90.53h-.34a2.68,2.68,0,0,0-1,.21c-.35.23-.51.53-.41.82a.57.57,0,0,0,.53.42.43.43,0,0,0,.36-.22,3.19,3.19,0,0,1,.88-1.22"/><path d="M96.85,93.72a1.18,1.18,0,0,0,.27,0A2.67,2.67,0,0,0,98.24,93a5.24,5.24,0,0,1-1.56-.29l-.15,0a.41.41,0,0,0-.42.43.59.59,0,0,0,.18.4.79.79,0,0,0,.56.19"/><path d="M80.14,91.6a.53.53,0,0,0,.53.38.77.77,0,0,0,.62-.38,2.69,2.69,0,0,0,.32-1.24,4.26,4.26,0,0,1-1.25.76.4.4,0,0,0-.22.48"/><path d="M73.23,88.08a2.92,2.92,0,0,0-1.54.86,3.14,3.14,0,0,1,1.75.49c1,.39,1.25-1.39-.21-1.35"/><path d="M69.54,86.84a.48.48,0,0,0,.43-.38.79.79,0,0,0-.46-.83,2.71,2.71,0,0,0-1-.16,2,2,0,0,0-.35,0,3.29,3.29,0,0,1,1,1.12.46.46,0,0,0,.38.22"/><path d="M67.37,86.76c0-.29-.17-.63-.76-.7a2.47,2.47,0,0,0-1.2.36,3.16,3.16,0,0,1,1.29.68.57.57,0,0,0,.29.09.41.41,0,0,0,.38-.43"/><path d="M67.94,88.59a3,3,0,0,1-1.67.49,3.24,3.24,0,0,0,1.6.8c1.43,0,1.06-1.69.07-1.29"/><path d="M69.91,88.64a1.11,1.11,0,0,0,.44.1.5.5,0,0,0,.54-.51.42.42,0,0,0-.47-.44A3.59,3.59,0,0,1,69,87.74a2.73,2.73,0,0,0,.93.9"/><path d="M60.05,86.45a1.12,1.12,0,0,0,.51.15.49.49,0,0,0,.5-.49c0-.14,0-.44-.52-.47a3.1,3.1,0,0,1-1.27-.24,2.63,2.63,0,0,0,.78,1"/><path d="M56.44,86.78a1,1,0,0,0,.48.13.51.51,0,0,0,.5-.5.43.43,0,0,0-.43-.47H56.7a2.92,2.92,0,0,1-1.08-.17,2.68,2.68,0,0,0,.82,1"/><path d="M54.92,83.56l-.26,0a2.88,2.88,0,0,0-1,.26,2.8,2.8,0,0,1,.8.58l0,0a.73.73,0,0,0,.29.19.59.59,0,0,0,.25.05.53.53,0,0,0,.52-.44c0-.28-.2-.52-.61-.65"/><path d="M48.49,79.48l0,0a.56.56,0,0,0,.54.48.38.38,0,0,0,.33-.17.79.79,0,0,0,0-.73,2.49,2.49,0,0,0-.88-1,3.13,3.13,0,0,1,0,1,.89.89,0,0,0,0,.36"/><path d="M47.34,78.19a2.67,2.67,0,0,0-.88-1,3,3,0,0,1,0,1,1.17,1.17,0,0,0,0,.37v0a.54.54,0,0,0,.54.47.39.39,0,0,0,.32-.16.79.79,0,0,0,.06-.73"/><path d="M47,80l-.18,0a3.17,3.17,0,0,1-1.16-.41,2.26,2.26,0,0,0,.76,1.27.8.8,0,0,0,.43.13.51.51,0,0,0,.49-.41A.47.47,0,0,0,47,80"/><path d="M49,82.48a.76.76,0,0,0,.48.18.49.49,0,0,0,.17-1l-.16,0a3.28,3.28,0,0,1-1.13-.52A2.44,2.44,0,0,0,49,82.48"/><path d="M75.4,86.34a.49.49,0,0,0,.07-.37,8.06,8.06,0,0,1,0-1.24c0-.09,0-.28-.47-.36H74.7A1.79,1.79,0,0,0,73,85.65a1.83,1.83,0,0,0,.73,2.08.6.6,0,0,0,.27.11l0,0a.83.83,0,0,0-.06-.44.71.71,0,0,1,.09-.62c.19-.25.55-.35,1.19-.37Z"/><path d="M77.67,91.14h0a.42.42,0,0,0,.31-.09V91c-.4-.33-.58-.58-.58-.85s.25-.55.58-.8.24-.46.09-.65a3.34,3.34,0,0,1-.8-.93.4.4,0,0,0-.33-.21.93.93,0,0,0-.47.21,1.79,1.79,0,0,0-.63,2.08,1.87,1.87,0,0,0,1.78,1.32"/><path d="M90.38,90.81l.05,0a1.33,1.33,0,0,0,.58.11,1.62,1.62,0,0,0,1.48-1.24,2,2,0,0,0-.88-2.29.61.61,0,0,0-.36-.15.49.49,0,0,0-.31.16,7.05,7.05,0,0,1-.8,1,.47.47,0,0,0-.07.36.52.52,0,0,0,.27.28,1.06,1.06,0,0,1,.61.77c0,.31-.16.62-.57,1"/><path d="M87.21,88.3a1.26,1.26,0,0,0,.81.3,1.24,1.24,0,0,0,.54-.14,3.43,3.43,0,0,0,1.92-1.7,1.25,1.25,0,0,0-.26-1.12A1.59,1.59,0,0,0,89,85h-.23a2.53,2.53,0,0,1-2-1,1.91,1.91,0,0,0-.84-.64,1,1,0,0,0-.27,0c-.11,0-.12,0-.12,0v.14a2.25,2.25,0,0,0,.84,1.22,9,9,0,0,0,1.58.9c.33.21.48.41.46.62s-.2.44-.6.62a.65.65,0,0,1-.29.07c-.3,0-.55-.19-.79-.6a10.54,10.54,0,0,0-1.8-2.14l-.18-.07a.45.45,0,0,0-.2.06,1.35,1.35,0,0,0-.58.53.51.51,0,0,1-.4.26.69.69,0,0,1-.35-.14l-.21.06A11.19,11.19,0,0,0,80.45,87a.82.82,0,0,1-.47.23h0l-.17-.07,0,0,0,0a.6.6,0,0,1,.26-.62,8.72,8.72,0,0,0,2.09-1.83.34.34,0,0,0,.05-.24A.46.46,0,0,0,81.9,84a1.75,1.75,0,0,0-.85-.19,3.62,3.62,0,0,0-1,.16,5,5,0,0,1-.89.11,5.75,5.75,0,0,1-1.51-.21,1.13,1.13,0,0,0-.41-.05.77.77,0,0,0-.71.38,3.51,3.51,0,0,0-.18.51,4.94,4.94,0,0,0,0,1.35,2.53,2.53,0,0,0,.19.44.36.36,0,0,0,.3.15,1.15,1.15,0,0,0,.52-.18,1.45,1.45,0,0,0,.73-1.3.68.68,0,0,1,.44-.44,5.45,5.45,0,0,1,1.64-.34,2.75,2.75,0,0,1,.52,0c.22,0,.34.14.38.28s-.14.32-.27.42a9.6,9.6,0,0,1-2.25,1.1c-.52.24-.7.67-.62,1.37,0,.36.37.76,1,1.26a1.15,1.15,0,0,0,1.65-.6c0-.23.25-.43.67-.66a8.26,8.26,0,0,0,1.51-1.32.49.49,0,0,1,.31-.14c.23,0,.29.23.36.47l.06.22c.14.25.28.36.43.36s.41-.16.67-.47a.54.54,0,0,1,.35-.19l.14,0,0,0c.1.1.1.26.07.52s0,.21.08.25a.45.45,0,0,1,.29-.1.86.86,0,0,1,.53.2Z"/><path d="M77.42,79.92a.28.28,0,0,0-.25.12.26.26,0,0,0,0,.27l1.77,2.4a1.16,1.16,0,0,0,.85.46.49.49,0,0,0,.39-.19.82.82,0,0,0,.1-.73c0-.19-.14-.26-.18-.26l-.11.13a.59.59,0,0,1-.39.21.5.5,0,0,1-.39-.22L77.69,80a.3.3,0,0,0-.27-.11"/><path d="M82.88,83.92a.86.86,0,0,0,.35.07c.17,0,.4-.06.49-.56a3.69,3.69,0,0,0-.25-2.09l-1.42-3.16a.65.65,0,0,0-.16-.25s-.08,0-.17.29a2,2,0,0,0,.37,1.58c.23.35.43.75.65,1.17l.27.53a1.15,1.15,0,0,1,0,1,.53.53,0,0,1-.41.23.72.72,0,0,1-.52-.27l-1.4-2a2.45,2.45,0,0,0-1.25-1.23.93.93,0,0,0-.38-.08h0a1.31,1.31,0,0,0,.09.24,15.72,15.72,0,0,1,1.06,1.54l0,0a7.12,7.12,0,0,0,2.69,2.94"/><path d="M81,79.52l0,.21L82,81.6l.08,0a.28.28,0,0,0,.24-.14.39.39,0,0,0-.08-.32l-1.06-1.63-.11-.06Z"/><path d="M79.41,81.61l.08,0a.34.34,0,0,0,.21-.15.28.28,0,0,0,0-.29l-.88-1.36-.1,0-.12,0,0,.2Z"/><path d="M85.32,82.44a1.51,1.51,0,0,0,.41.07.27.27,0,0,0,.21-.07.37.37,0,0,0,0-.3,13.36,13.36,0,0,0-.86-3.62,3,3,0,0,1-.3-1.08.25.25,0,0,0-.1-.28l-.18.12a1.46,1.46,0,0,0-.06,1.3l.71,1.84a.76.76,0,0,1,0,.67l-.12.09H85a.53.53,0,0,1-.39-.27,4.53,4.53,0,0,1-.6-1.71c-.19-.74-.4-.83-.59-.9l-.1,0-.11,0v.07c.39,1.58.9,3.33,2.11,4.06"/><path d="M82.48,68.41a.53.53,0,0,0-.29.27.6.6,0,0,0-.08.55,11.41,11.41,0,0,1,1.32,5.85c0,.66-.39.7-.47.7a.66.66,0,0,1-.55-.35,23,23,0,0,1-1.3-2.67l0-.05c-.31-.71-.66-1.51-1-2.16a.47.47,0,0,0-.12-.12s-.08,0-.15.33A1.87,1.87,0,0,0,80,72c.32.62.63,1.33.88,1.88v0a10,10,0,0,0,1.81,3.15.9.9,0,0,0,.51.19c.22,0,.41-.15.57-.47.76-1.34-.1-6.19-1.2-8.22-.06-.14-.11-.14-.14-.14"/><path d="M82.52,74.08c.08,0,.16-.07.18-.28A5.69,5.69,0,0,0,81,69.61a.43.43,0,0,0-.22-.06.18.18,0,0,0-.17.09.39.39,0,0,0,0,.37,14.42,14.42,0,0,1,1.78,3.93.17.17,0,0,0,.14.14"/><path d="M79.94,78.5a1,1,0,0,0,.43.11c.18,0,.6-.07.73-.71a11.18,11.18,0,0,0-2-6.33.33.33,0,0,0-.27-.13.51.51,0,0,0-.39.19.32.32,0,0,0,0,.28,17.35,17.35,0,0,0,.84,2l.06.12a16.32,16.32,0,0,1,1,2.52.88.88,0,0,1,0,.72.4.4,0,0,1-.31.16.69.69,0,0,1-.48-.24,16.23,16.23,0,0,1-2.07-2.91l-.1-.16a13.62,13.62,0,0,0-1-1.61.64.64,0,0,0-.41-.27l-.15.08a.7.7,0,0,0,0,.6,18.72,18.72,0,0,0,4.21,5.54"/><path d="M76.22,71.22l-.13,0,.07.16a19.73,19.73,0,0,1,2.75,4.34l.14.11.06,0a.57.57,0,0,0,0-.37,7.2,7.2,0,0,0-2.81-4.21Z"/><path d="M77,79.06c.41,0,.66-.36.66-.94-.11-1.86-1.56-3.45-3-5A.55.55,0,0,0,74.4,73l-.11.08,0,.11A25.54,25.54,0,0,1,77,76.93a1,1,0,0,1,0,.9.51.51,0,0,1-.43.24.71.71,0,0,1-.54-.25,42.76,42.76,0,0,0-4.2-5,.37.37,0,0,0-.25-.12l-.15.11c0,.07,0,.18.11.28a67.44,67.44,0,0,1,4.53,5.53,1.37,1.37,0,0,0,.91.47"/><path d="M72.57,72.1l-.09,0a.67.67,0,0,0,.06.5L76,76.81l.19.1.06,0a.48.48,0,0,0-.11-.28l-3.48-4.44Z"/><path d="M86.54,39.27a4.77,4.77,0,0,0,2,1.07.27.27,0,0,0,.22-.09.8.8,0,0,0,.24-.72,1.19,1.19,0,0,0-.77-.8h0a.75.75,0,0,1-.16.51.59.59,0,0,1-.41.18.64.64,0,0,1-.67-.56,1.54,1.54,0,0,0-.72-1h0v0a1.27,1.27,0,0,1,.15.94.47.47,0,0,0,.08.47"/><path d="M82.09,41.83a1.55,1.55,0,0,1-.48-.07h-.08a.5.5,0,0,0,.07.17,2.3,2.3,0,0,0,1.44.6.7.7,0,0,0,.64-.31c.17-.31,0-.87-.34-1.53l-.07-.13v-.08c0-.07,0-.22-.62-.75l0,0c0,.15-.2.25-.46.3a4,4,0,0,1-.54.05l-.71,0-.1.06a.45.45,0,0,0,.36.33c1.3,0,1.76.44,1.76.83s-.35.57-.82.58"/><path d="M82.63,44c1,.3,1.23.94,1.16,1.4a.72.72,0,0,1-.65.67,1.22,1.22,0,0,1-.73-.34.89.89,0,0,0,.07.44,2.24,2.24,0,0,0,1.78,1.24.6.6,0,0,0,.53-.24,1.07,1.07,0,0,0,0-1,5.38,5.38,0,0,1-.6-2.65c0-.18,0-.24-.09-.28a1,1,0,0,0-.29.13,1.42,1.42,0,0,1-.6.14,2.4,2.4,0,0,1-1.08-.32l-.13.11a.22.22,0,0,0,0,.21Z"/><path d="M79.23,59a.67.67,0,0,0,0,.61A32,32,0,0,1,81,62.44l.09.14c.47.8.86,1.46,1.15,1.89.14.15.26.23.35.23s.25-.23.26-.53c-.08-1.86-1-4.11-3-6.87l-.06.09a.5.5,0,0,0,0,.5,15.21,15.21,0,0,1,2,3.83.52.52,0,0,1,0,.5l-.1.08h-.08c-.14,0-.28-.11-.38-.31a15.29,15.29,0,0,0-1.82-3l-.14-.11Z"/><path d="M77.39,62.65a.21.21,0,0,0-.18.11.68.68,0,0,0,0,.62,48.87,48.87,0,0,0,2.4,4.6,1.43,1.43,0,0,0,1.13.69,1.2,1.2,0,0,0,.95-.59,3.06,3.06,0,0,0,0-2.81,28,28,0,0,0-2.94-5,.33.33,0,0,0-.23-.11.21.21,0,0,0-.18.11.62.62,0,0,0,0,.56,26.93,26.93,0,0,1,2.8,5,1.44,1.44,0,0,1,0,1.36.69.69,0,0,1-.59.35.83.83,0,0,1-.67-.4,30,30,0,0,1-2.33-4.37.34.34,0,0,0-.25-.16"/><path d="M80.17,66a.4.4,0,0,0,.31-.18.48.48,0,0,0,0-.47l-2.12-3.73a.42.42,0,0,0-.12-.18s-.06,0-.11.1a1.1,1.1,0,0,0-.08.85l2,3.54a.21.21,0,0,0,.17.07"/><path d="M77.81,71A1.44,1.44,0,0,0,79,70.26a2.11,2.11,0,0,0-.13-2.09,26.54,26.54,0,0,1-2.11-4.43c-.09-.24-.23-.38-.39-.37a.41.41,0,0,0-.33.22.33.33,0,0,0,0,.33,39.63,39.63,0,0,0,2.23,4.65,1.15,1.15,0,0,1,.1,1.18.73.73,0,0,1-.62.36,1,1,0,0,1-.83-.45A19.24,19.24,0,0,1,75.19,67L75,66.77c-.35-.58-.71-1.19-1.07-1.7a.4.4,0,0,0-.32-.17.41.41,0,0,0-.35.24.34.34,0,0,0,.1.39l3,4.66a1.64,1.64,0,0,0,1.39.8"/><path d="M74.73,64.5l2.21,4a.54.54,0,0,0,.4.26l.12-.06s.11-.21-.11-.67L75,63.6c0-.09-.09-.12-.15-.12l-.1,0,0,.19a.48.48,0,0,1,0,.34c-.05.12-.1.23.08.47"/><path d="M75.21,72.05a1.69,1.69,0,0,0,.1-1.37,20.14,20.14,0,0,0-2.62-4.74l-.2-.28a.66.66,0,0,0-.52-.23c-.16,0-.25,0-.26.08s0,.08.09.19a27.64,27.64,0,0,1,2.77,4.63.74.74,0,0,1,0,.77.57.57,0,0,1-.49.33.69.69,0,0,1-.51-.27,45.16,45.16,0,0,1-3.94-4.94.37.37,0,0,0-.31-.13.35.35,0,0,0-.3.16.41.41,0,0,0,0,.39,33.71,33.71,0,0,0,4.17,5.27,1.63,1.63,0,0,0,1.17.47,1,1,0,0,0,.78-.33"/><path d="M70.12,65.41a12.43,12.43,0,0,0,3.13,4.44.31.31,0,0,0,.17.08l.08,0a.41.41,0,0,0-.06-.35,51.4,51.4,0,0,0-3.13-4.4h-.16a.38.38,0,0,0,0,.27"/><path d="M71.3,72.05a.37.37,0,0,0,.3-.1s.07-.19-.07-.52a24.2,24.2,0,0,0-3.67-5,.5.5,0,0,0-.36-.18l-.1,0s0,.09.06.19c.8,1,1.72,2.21,2.44,3.29a.51.51,0,0,1,.1.48l0,0-.12.1,0,0h0a.58.58,0,0,1-.37-.16,61.41,61.41,0,0,1-3.81-4.88.29.29,0,0,0-.26-.15.43.43,0,0,0-.36.22.34.34,0,0,0,0,.35l.23.34c1.55,2.3,3.47,5.15,5.87,5.89Z"/><path d="M76.36,54a1.92,1.92,0,0,0-.25.44c-.11.55,0,.68,0,.71h0a.55.55,0,0,0,.2,0A2.76,2.76,0,0,0,77.4,53l-.22-3.65c0-.22-.15-.36-.26-.36l-.18.09a.68.68,0,0,0-.12.46l0,.81c0,.42,0,.83,0,1.24l0,1.18A1.5,1.5,0,0,1,76.38,54Z"/><path d="M73.56,50.68a.37.37,0,0,0-.23.21,11.49,11.49,0,0,0-.59,4.57,1,1,0,0,0,1,.89,2.16,2.16,0,0,0,1.83-1.58,17.15,17.15,0,0,0,.25-4.88c0-.29-.12-.47-.25-.47l-.18.1a.53.53,0,0,0-.12.38A12,12,0,0,1,75,54.39c-.38.63-.75,1-1.07,1s-.46-.09-.52-.7A16.83,16.83,0,0,1,73.73,51c0-.1,0-.17-.17-.27"/><path d="M74.45,54a9.76,9.76,0,0,0,.17-3.89c0-.18-.1-.26-.13-.26s-.15.11-.19.29l-.17,3.91c0,.14.1.15.14.15s.15-.05.18-.2"/><path d="M69.44,56.28a.59.59,0,0,1-.52-.24c-.13-.21-.11-.49,0-.93l.81-2.89a.28.28,0,0,0-.06-.25l-.14-.07c-.11,0-.23.12-.31.29a21.19,21.19,0,0,1-.71,2c-.19.48-.37.93-.57,1.55a1.16,1.16,0,0,0-.08.75,1.77,1.77,0,0,0,1.48.52h.09c1.46-.19,2.21-.72,2.3-1.63l.57-3.81a.48.48,0,0,0-.14-.37L72,51.14c-.11,0-.27.11-.35.42l-.49,2.9c-.2,1.21-.79,1.8-1.76,1.82"/><path d="M70.84,51.38a.37.37,0,0,0-.3.28A27.23,27.23,0,0,1,70,54.83a.27.27,0,0,0,0,.22l.13.06c.13,0,.29-.15.38-.38a23.55,23.55,0,0,0,.43-3.15c0-.2-.08-.2-.1-.2"/><path d="M65.29,56.39a2.09,2.09,0,0,0,.86.2,1.44,1.44,0,0,0,1.24-.85l1.08-3.06c0-.26,0-.35-.09-.4a.24.24,0,0,0-.12.15,19.17,19.17,0,0,1-1.42,3,.91.91,0,0,1-.7.42.63.63,0,0,1-.53-.28.74.74,0,0,1,0-.76,18.42,18.42,0,0,0,1.19-2.72.26.26,0,0,0-.1-.31.28.28,0,0,0-.2.19A19.5,19.5,0,0,1,65,55a1.23,1.23,0,0,0-.21.93.85.85,0,0,0,.47.49"/><path d="M67.27,52.3a11.49,11.49,0,0,1-1,2.48.27.27,0,0,0,0,.3l.08,0a.32.32,0,0,0,.23-.15,6.63,6.63,0,0,0,1.07-2.51c0-.18,0-.26-.17-.34a.2.2,0,0,0-.16.18"/><path d="M65.53,52.18s-.09,0-.12.12a14.43,14.43,0,0,1-1.18,2,.27.27,0,0,0,0,.25l.09,0,.14,0a5.7,5.7,0,0,0,1.23-2.15.25.25,0,0,0-.12-.24"/><path d="M62.78,55.17a1.42,1.42,0,0,0,1,.64.48.48,0,0,0,.36-.2l0-.16-.49-.38a.44.44,0,0,1-.19-.27.79.79,0,0,1,.19-.55,7.79,7.79,0,0,0,1.09-1.49c.1-.19.13-.36.07-.45l-.07,0c-.07,0-.14.06-.2.17a19.27,19.27,0,0,1-1.54,2c-.24.3-.29.52-.17.76"/><path d="M62.53,56.37a4.67,4.67,0,0,0-1,3.82A8.22,8.22,0,0,0,62.21,62c.14.32.32.7.47,1.13A4.15,4.15,0,0,1,63,64.76c0,.08,0,.26.44.26a3.2,3.2,0,0,0,.61-.1,1.54,1.54,0,0,0,.94-.7,1.16,1.16,0,0,0,0-.88c-1.26-2.84-1.33-4.62-.23-6.12a.39.39,0,0,0,0-.39.31.31,0,0,0-.27-.14.45.45,0,0,0-.33.17,3.16,3.16,0,0,0-.91,2.47,6.59,6.59,0,0,0,.42,1.93c.14.46.3,1,.41,1.52a.54.54,0,0,1-.06.5.31.31,0,0,1-.27.15c-.11,0-.32,0-.48-.47s-.32-1-.45-1.33v0a7.31,7.31,0,0,1-.52-2,4.34,4.34,0,0,1,.89-2.89v0a.4.4,0,0,0,.07-.38.36.36,0,0,0-.32-.15.41.41,0,0,0-.36.2"/><path d="M65.05,61.73a8.42,8.42,0,0,0,1.67,3.52,1.81,1.81,0,0,0,1.2.42,1.47,1.47,0,0,0,1.49-1.13,2,2,0,0,0-.17-1c0-.13-.09-.25-.12-.38a9,9,0,0,1-.07-4.86.33.33,0,0,0,0-.29.4.4,0,0,0-.31-.12.49.49,0,0,0-.42.23,8.61,8.61,0,0,0,0,5.28,1,1,0,0,1-.14.87.71.71,0,0,1-.55.29.88.88,0,0,1-.7-.38c-1.51-2.43-1.77-4.53-.81-6.43a.47.47,0,0,0,0-.5.32.32,0,0,0-.27-.14.51.51,0,0,0-.38.25,5.57,5.57,0,0,0-.42,4.38"/><path d="M67.6,57.34a.31.31,0,0,0-.24-.12.4.4,0,0,0-.36.26A6.55,6.55,0,0,0,67.23,63a.25.25,0,0,0,.21.12l.09,0s.07-.13,0-.42c-.59-2.44-.56-4,.1-5a.29.29,0,0,0,0-.31"/><path d="M70.5,57.85a.3.3,0,0,0-.21-.08.41.41,0,0,0-.38.32,9.55,9.55,0,0,0,0,5,2,2,0,0,0,2,1.53,1.68,1.68,0,0,0,1.7-1.62,20.34,20.34,0,0,1-.24-5.52.4.4,0,0,0-.1-.31.49.49,0,0,0-.34-.14.27.27,0,0,0-.28.23,14,14,0,0,0-.24,4.39c0,.1,0,.21,0,.35a1.44,1.44,0,0,1-.11,1.16.76.76,0,0,1-.55.28,1.09,1.09,0,0,1-.89-.58,8.32,8.32,0,0,1-.29-4.78.38.38,0,0,0-.1-.28"/><path d="M71.74,57.42l-.12-.05a.28.28,0,0,0-.24.24A14.14,14.14,0,0,0,71.19,62a.33.33,0,0,0,.33.26c.15,0,.31-.11.34-.38a20.11,20.11,0,0,1-.07-4.34Z"/><path d="M75.89,56.07a1.47,1.47,0,0,0-.06.87,9.22,9.22,0,0,1,.59,3.87.88.88,0,0,1-.8.75.76.76,0,0,1-.71-.53,13,13,0,0,1-.36-3.68.37.37,0,0,0-.38-.32.36.36,0,0,0-.24.11.35.35,0,0,0-.08.28,10.28,10.28,0,0,0,.81,5,1.1,1.1,0,0,0,.87.43c.61,0,1.25-.59,1.7-1.55.37-1.31,0-2.95-1.08-5.14l-.17-.1Z"/><path d="M75.64,60.22c.07,0,.14-.18.14-.29a29.84,29.84,0,0,1-.43-3c-.06-.24-.16-.31-.21-.3s-.12.07-.12.2a12.55,12.55,0,0,0,.45,3.34Z"/><path d="M78.1,54.35a.41.41,0,0,0-.07.23,2.89,2.89,0,0,0,.28,1.13l0,0A3,3,0,0,1,78.63,57c-.07.34-.29.38-.39.38a.42.42,0,0,1-.22,0c-.36,0-.58-.71-.64-1,0-.13.19-.32.25-.24s.18.25.24.22c.22,0-.17-.93-.17-.93a.37.37,0,0,0-.32-.11.86.86,0,0,0-.41.18c-.19.08-.3.2-.19.54A5.65,5.65,0,0,0,78,58.59a.41.41,0,0,0,.26.1.65.65,0,0,0,.45-.29,3.47,3.47,0,0,0-.48-3.95.28.28,0,0,0-.14-.1"/><path d="M79.69,53.71l-.17,0c-.09,0-.16,0-.18.08s0,.1,0,.19a3.47,3.47,0,0,0,.4.51c.35.4.79.89.26,1.42-.14.09-.14.13,0,.32a.46.46,0,0,0,.4.26,1.07,1.07,0,0,0,.41-.13l.68-.87.08-.2a.15.15,0,0,0-.13,0c-.43,0-.72-.43-1-.78a2.15,2.15,0,0,0-.76-.72"/><path d="M81.7,53.61a.47.47,0,0,1-.3-.1l-.83-.64-.17,0a.27.27,0,0,0-.23.16.29.29,0,0,0,0,.27,7.4,7.4,0,0,0,1.24,1.26.74.74,0,0,0,.43.18.57.57,0,0,0,.35-.15,9.51,9.51,0,0,1,.67-.73,3,3,0,0,0,.9-1.18c0-.21,0-.29,0-.31s-.06,0-.24,0a2.82,2.82,0,0,1-1.71-.92l-.15-.06a.34.34,0,0,0-.29.19.27.27,0,0,0,0,.27l.83.87a.62.62,0,0,1,0,.63.66.66,0,0,1-.52.34"/><path d="M83.48,50.33a.85.85,0,0,1-.57-.29c-.06-.09-.11-.12-.15-.12s-.07,0-.18.11c-.41.37-.32.61-.2.77a2.11,2.11,0,0,0,1.33.81,1,1,0,0,0,.78-.55A6.07,6.07,0,0,0,85,49a.46.46,0,0,0,0-.33,1.33,1.33,0,0,0-.29-.12l0,0-.16-.06a9.14,9.14,0,0,1-1.57-1l0,.08c-.08.33,0,.53.13.66l.79.64A1,1,0,0,1,84,50a.54.54,0,0,1-.48.36"/><path d="M99.13,88.62a.87.87,0,0,0,0-.78c0-.18-.14-.23-.53-.27s-1.11-.14-1.13-1.08v-.33l-.16,0a1.57,1.57,0,0,0-1,1,3.24,3.24,0,0,1-.29.51,1.29,1.29,0,0,1-.82.39c-.33,0-.6-.2-.85-.64,0-.13-.06-.2-.07-.24a1.93,1.93,0,0,0-.21.27,1.34,1.34,0,0,0-.18,1,2.69,2.69,0,0,1-.35,1.67C92.8,91.32,92,92,91.06,92a2.13,2.13,0,0,1-.68-.09l-.13,0a.35.35,0,0,0-.32.3.36.36,0,0,0,0,.34,4,4,0,0,0,1.26.23,3.11,3.11,0,0,0,2.39-1.34c1-1.45,2.28-3.24,3.72-3.27a1.89,1.89,0,0,1,.91.23l0,0a.78.78,0,0,0,.57.4.33.33,0,0,0,.27-.16"/><path d="M102.57,93a.9.9,0,0,1-.85-.32,1,1,0,0,1,.07-1l0-.12h-.34c-.75.12-.91.38-.95.79a.62.62,0,0,1-.42.76,12.58,12.58,0,0,1-5.2,1.39,14,14,0,0,1-4-.66c-.77-.22-1.41-.39-2.1-.52-.45,0-.78.15-.83.34a.35.35,0,0,0,.13.3l1.55.54c.21,0,.86.18.91.8s.51,1.07,1,1.06l.18,0,.09,0h0l0,0v0a.86.86,0,0,1-.06-.7.34.34,0,0,1,.33-.27,1.16,1.16,0,0,1,.32.06,13.79,13.79,0,0,0,2.77.25,11.77,11.77,0,0,0,1.73-.14.86.86,0,0,1,.22,0,.51.51,0,0,1,.42.17,2.62,2.62,0,0,0,1.46.61,1,1,0,0,0,.67-.27h0a1,1,0,0,1-.66-.67c0-.36,0-.44.37-.54A4.16,4.16,0,0,0,101,94a.73.73,0,0,1,.61-.23h0c1,0,1.27-.33,1.35-.55V93h-.13l-.31,0"/><path d="M102.81,89.22a2.25,2.25,0,0,1-1.79,1,1.82,1.82,0,0,1-.77-.14.74.74,0,0,1-.31-.57c0-.38.28-.82.89-1.35a1.6,1.6,0,0,1,1-.42,1,1,0,0,1,.89.43,1.13,1.13,0,0,1,.06,1.1m-1.08-2.12a1.79,1.79,0,0,0-1.1.41c-1.51,1.26-1.84,2.23-1.08,3.22a2.65,2.65,0,0,0,1.41.41A4,4,0,0,0,103.42,90a1.71,1.71,0,0,0,0-1.82,2,2,0,0,0-1.74-1.07"/><path d="M106.25,88.68c0-.32-.18-.34-.3-.34h-.16a4.36,4.36,0,0,0-1,.29.29.29,0,0,0-.25.28.35.35,0,0,0,.19.38,4.74,4.74,0,0,0,1.17.31h.12a.25.25,0,0,0,.17-.05.28.28,0,0,0,0-.23,1.65,1.65,0,0,1,0-.66"/><path d="M105.7,87.16a6.15,6.15,0,0,1-.57-.7c-.11-.12-.17-.18-.22-.18s-.12.06-.25.18a2,2,0,0,0-.67.8c-.06.25,0,.42,0,.52a.56.56,0,0,0,.45.2,2.29,2.29,0,0,0,1.18-.52c.13-.13.13-.18,0-.3"/><path d="M103.65,85.28a.51.51,0,0,0-.31-.16s-.11,0-.22.2a2.2,2.2,0,0,0-.3.66c0,.28,0,.47.08.56s.19.11.37.11l.24,0a1.69,1.69,0,0,0,.8-.58l0-.14c0-.06-.06-.14-.16-.22a3.2,3.2,0,0,1-.55-.41"/><path d="M107.2,84.57c-.29,0-.55.18-.56.39,0,.44-.23.75-.74,1-.18.1-.11.36-.11.37.07.22.25.45.46.44l.17,0a1.06,1.06,0,0,1,.92-.46c.12,0,.25,0,.44,0a.44.44,0,0,0,.43-.32.93.93,0,0,0-.27-1,1,1,0,0,0-.74-.37"/><path d="M67.86,92.27c0,.25-.17.45-.6.62l.12,0a1.64,1.64,0,0,0,.42.06,1.87,1.87,0,0,0,1-.42,2.12,2.12,0,0,1,1.2-.45,2.67,2.67,0,0,1,1,.2c.38.17.57.34.61.55a.52.52,0,0,1-.19.47l0,0h0l.28,0c.6,0,1-.34,1.29-1.06a2,2,0,0,1,1.23-.83,1.53,1.53,0,0,0,.42-1,.3.3,0,0,0-.14-.34.78.78,0,0,0-.19.06,7.31,7.31,0,0,1-3.52.93,18.65,18.65,0,0,1-7.07-1.79,1.38,1.38,0,0,1-.8-1.62L63.82,85a2.23,2.23,0,0,1,2.09-1.3c1.45,0,3.5.88,6.29,2.75l.13.08,0-.06a.73.73,0,0,0-.1-.68l-1-.82a1.09,1.09,0,0,1-.42-.9c-.09-.9-.46-1.15-.85-1.3l-.1,0a.5.5,0,0,0,0,.15l-.08.73a.44.44,0,0,1-.41.28l-.23,0a3.18,3.18,0,0,1-2.53-1.45c-.36-.46-.6-.79-1.18-.78l-.27,0h0l.29.25a.6.6,0,0,1,.2.57c0,.22-.24.37-.6.48a1.43,1.43,0,0,0-.58.11,1.2,1.2,0,0,1-.4.11,1.25,1.25,0,0,1-.65-.23h0a1.44,1.44,0,0,0-.8-.26,1.54,1.54,0,0,0-.42.07h0l.07,0a1.32,1.32,0,0,1,.58,1.7l-1.1,3.37a2.36,2.36,0,0,0,.65,2.33c.79.3,1.16.58,1.19.9s-.17.45-.55.65h0a1.35,1.35,0,0,0,.66.15,1.43,1.43,0,0,0,.94-.42,1.32,1.32,0,0,1,.83-.31,1.48,1.48,0,0,1,.55.09c1.25.33,1.82.65,1.86,1"/><path d="M61.76,85.21a.28.28,0,0,0,.21-.14.33.33,0,0,0,0-.29,4.24,4.24,0,0,0-1.62-1.61l-.2,0a.21.21,0,0,0-.2.13.31.31,0,0,0,.07.32,6.6,6.6,0,0,1,1.6,1.58Z"/><path d="M51,85.19c0,.79,0,1.54-.73,1.66h0l0,0a1.89,1.89,0,0,0,.9.26,1.4,1.4,0,0,0,.65-.19.48.48,0,0,1,.36-.16.38.38,0,0,1,.25.07l2.21,1c.3.13.44.28.46.46s-.1.34-.39.54a1.71,1.71,0,0,0,.65.13,1.65,1.65,0,0,0,1-.38.61.61,0,0,1,.45-.17.65.65,0,0,1,.21,0c.37,0,.75,0,1.14,0a10.46,10.46,0,0,0,2.69-.33.71.71,0,0,0,.31-.76.26.26,0,0,0-.26-.19l-.17,0a10,10,0,0,1-2.46.41,10.09,10.09,0,0,1-5.67-1.87c-.42-.15-.58-.62-.44-1.41a8.38,8.38,0,0,1,1.37-2.75.6.6,0,0,1,.53-.32h0a3.44,3.44,0,0,0,.62,0c.69,0,.78-.29.78-.53,0-.08,0-.09,0-.09h-.08l-.21,0a1.94,1.94,0,0,1-1.31-.62,1.22,1.22,0,0,0-.78-.45l-.12,0a.93.93,0,0,1,.25.58.94.94,0,0,1-.35.66A6.37,6.37,0,0,0,51,85.19"/><path d="M56.74,83.34v0a2.49,2.49,0,0,1,.08-2.24,1,1,0,0,1,.75-.37.91.91,0,0,1,.75.36,1.53,1.53,0,0,1,.13,1.35c-.23.82-.55,1.23-1,1.23a1,1,0,0,1-.7-.3m2.63-.65A2.2,2.2,0,0,0,59,80.78a1.88,1.88,0,0,0-1.46-.66,1.46,1.46,0,0,0-1,.42A2.37,2.37,0,0,0,56,82.37a3,3,0,0,0,.91,2.07,2.14,2.14,0,0,0,.67.1c.78,0,1.38-.63,1.78-1.85"/><path d="M60.05,80.31a1.78,1.78,0,0,0,.91-.47.37.37,0,0,0-.14-.53l-.53-.39-.16,0c-.11,0-.22.1-.32.26a1.23,1.23,0,0,0-.26.81c.07.26.19.37.41.37Z"/><path d="M59.12,78.31l-.67-.23h-.16l-.14,0s-.06.1,0,.3l0,.88c.1.18.21.25.34.25a.71.71,0,0,0,.4-.15,4.22,4.22,0,0,0,.42-.51.48.48,0,0,0,.09-.39c0-.07-.13-.13-.28-.18"/><path d="M57.21,78.15a3.48,3.48,0,0,1-.69.08c-.11,0-.18,0-.21.07s-.06.15,0,.5.46.85.76.85c.12,0,.23-.11.34-.3a.91.91,0,0,0,.09-.41l0-.42c0-.26,0-.34-.17-.41Z"/><path d="M47.93,83.9a.7.7,0,0,1,.25,0,5.35,5.35,0,0,0,1.52.27,2.62,2.62,0,0,0,.52-.07.31.31,0,0,0,.21-.32.28.28,0,0,0-.3-.2,8.47,8.47,0,0,1-6.19-4.09,1.57,1.57,0,0,1,.08-1.7,5.3,5.3,0,0,1,2.16-1.78,1.8,1.8,0,0,1,.84-.24,1.31,1.31,0,0,1,.91.35A10.81,10.81,0,0,1,51,81c0,.33.19.49.32.48s.28-.12.34-.39l-.2-1a.91.91,0,0,1,.06-.79c.64-.85.67-1.5.12-2v0c-.21.58-.43.85-.71.85s-.43-.17-.63-.52a8.29,8.29,0,0,0-2.09-2.21c-.33-.2-.48-.43-.4-.67-.16-1-.48-1.06-.94-1.14h-.09l0,0c.24.74-.09,1.26-1,1.55A5.44,5.44,0,0,0,42.72,78c-.14.4-.38.49-.57.5a1.15,1.15,0,0,1-.69-.33h0v.15a1.25,1.25,0,0,0,.83,1.25A.64.64,0,0,1,43,80a3.4,3.4,0,0,0,.77,1c.21.2.3.36.25.52s-.29.3-.78.35l.05.06a1.59,1.59,0,0,0,1.28.46l.22,0a.68.68,0,0,1,.49.2l.94.57c.25.14.37.29.37.45s-.17.39-.55.6h0l0,0a1.42,1.42,0,0,0,.74.25,1.08,1.08,0,0,0,.79-.41.45.45,0,0,1,.39-.23"/><path d="M42.85,72c.22,0,.74.07,1.06.92s.35,1.29.15,1.58a.61.61,0,0,1-.56.27h-.18A2.31,2.31,0,0,1,42,73a.91.91,0,0,1,.86-.91m-1.31.24a2.05,2.05,0,0,0,.14,1.66,3.11,3.11,0,0,0,2,1.61h.21a1.13,1.13,0,0,0,1-.64,2.62,2.62,0,0,0-.33-2.5,2.17,2.17,0,0,0-1.67-1.08,1.69,1.69,0,0,0-1.38.94"/><path d="M43.17,70.83a.64.64,0,0,0,.43-.28,2.73,2.73,0,0,0,.23-.84.33.33,0,0,0-.23-.4,1.28,1.28,0,0,0-.51-.09,1.65,1.65,0,0,0-.38,0c-.15,0-.2.22-.17.51.08.61.33,1,.63,1"/><path d="M42,71a1.51,1.51,0,0,0,.07-1.19.33.33,0,0,0-.06-.21.47.47,0,0,0-.32-.1,1.07,1.07,0,0,0-.87.45c-.06.11,0,.22.07.36.34.6.7.81.9.8A.24.24,0,0,0,42,71"/><path d="M40.36,70.49c-.25,0-.63.43-.71.73,0,.14,0,.19.06.23a1.47,1.47,0,0,0,1,.47.39.39,0,0,0,.37-.2c.11-.25-.1-.67-.54-1.15Z"/><path d="M40.11,68.32a.56.56,0,0,1,.47.57.4.4,0,0,0,.37.3.35.35,0,0,0,.33-.24.5.5,0,0,0-.1-.55.56.56,0,0,1,0-.63.86.86,0,0,0-.13-.7.67.67,0,0,0-.53-.19,1.07,1.07,0,0,0-1,.61c-.09.36.28.65.57.83"/><path d="M60.24,91.72a.78.78,0,0,1-.51.18.77.77,0,0,1-.72-.43.92.92,0,0,1,.16-1,.64.64,0,0,1,.47-.19.84.84,0,0,1,.76.48.86.86,0,0,1-.16.94m.88,0a1.59,1.59,0,0,0-1.47-2.1,1.47,1.47,0,0,0-1.28.74,1.68,1.68,0,0,0,.24,1.74,1.49,1.49,0,0,0,1.15.57,1.57,1.57,0,0,0,1.36-1"/><path d="M53.14,97.05a.77.77,0,0,1-1.2-.24.9.9,0,0,1,.16-1,.7.7,0,0,1,.47-.19.84.84,0,0,1,.57,1.42M52.57,95a1.43,1.43,0,0,0-1.25.73,1.72,1.72,0,0,0,.22,1.74,1.49,1.49,0,0,0,1.13.57h0A1.52,1.52,0,0,0,54,97.06a1.43,1.43,0,0,0-.32-1.58A1.37,1.37,0,0,0,52.57,95"/><path d="M91.84,103.11a.84.84,0,0,1-.52.2.92.92,0,0,1-.81-.49.94.94,0,0,1,.17-1,.76.76,0,0,1,.5-.19.93.93,0,0,1,.84.54.86.86,0,0,1-.18,1m-.69-2.22a1.57,1.57,0,0,0-1.37.78,1.74,1.74,0,0,0,.31,1.83,1.68,1.68,0,0,0,1.29.61,1.64,1.64,0,0,0,1.45-1,1.51,1.51,0,0,0-.41-1.66,1.63,1.63,0,0,0-1.27-.57"/><path d="M64.4,96a9.41,9.41,0,0,1-3.09-2.79.47.47,0,0,0-.34-.27.24.24,0,0,0-.2.13.52.52,0,0,0,0,.47,6,6,0,0,0,3.64,2.92c.14,0,.23,0,.25-.12s-.06-.23-.22-.34"/><path d="M64.21,101.85a14.3,14.3,0,0,0-3-.51.24.24,0,0,0-.22.21.3.3,0,0,0,.24.32,12.08,12.08,0,0,1,3,1.09l.14,0s0,0,.07-.18l0-.65c-.07-.2-.08-.21-.28-.31"/><path d="M58.84,100.32a3.43,3.43,0,0,0-2.06,1c-.09.13-.12.24-.09.3s.14.09.28.09a1.5,1.5,0,0,0,.6-.16,2.42,2.42,0,0,1,1.47-.63h.21c.43.06.56.3.55.51a.44.44,0,0,1-.41.43.36.36,0,0,1-.26-.1.34.34,0,0,0-.28-.12.66.66,0,0,0-.23,0,3.45,3.45,0,0,0-1,.43l-.1,0a1,1,0,0,1-.23.12l-.12.09s0,.05.12.13a5.31,5.31,0,0,0,1.54.28,1.47,1.47,0,0,0,1.32-.62,1.16,1.16,0,0,0-.05-1.15,1.41,1.41,0,0,0-1.28-.67"/><path d="M47.6,88.63c-.1,0-.27.09-.27.2s.34.43.91.55a2.86,2.86,0,0,1,2,.62c.34.31.29.56.25.65A.49.49,0,0,1,50,91a.43.43,0,0,1-.43-.33c0-.17-.12-.31-.45-.44a4.62,4.62,0,0,0-1.2-.31,4.14,4.14,0,0,1-.45-.07h-.17a.45.45,0,0,0,0,.16c1.19,1.54,2.12,1.76,2.56,1.76a1,1,0,0,0,.94-.55,1.35,1.35,0,0,0-.06-1.33c-.48-.8-1.62-1.23-3.19-1.21"/><path d="M96.8,97.33a5.73,5.73,0,0,0-2.3-.52,2.26,2.26,0,0,0-1.52.5,1.46,1.46,0,0,0-.47,1c0,.64.53,1.32,1.64,1.3a5,5,0,0,0,2.43-.84.41.41,0,0,0,.13-.19s0-.06-.21-.1a2.54,2.54,0,0,1-.48-.09,5.51,5.51,0,0,0-1.41-.17c-.34,0-.49.08-.6.28a.41.41,0,0,1-.33.18.59.59,0,0,1-.54-.44c0-.09,0-.42.48-.62a2.39,2.39,0,0,1,.77-.13,3.77,3.77,0,0,1,1.44.29,2.92,2.92,0,0,0,.51,0c.44,0,.64-.14.67-.22s-.06-.21-.21-.32"/><path d="M88.64,98.8a5.78,5.78,0,0,0,2.86-.62c.12-.08.26-.19.22-.34a.47.47,0,0,0-.45-.25.61.61,0,0,0-.28.07,12.63,12.63,0,0,1-2.94.42A17.22,17.22,0,0,1,86.12,98c-.27,0-.42.16-.44.29s.16.35.61.42a23.23,23.23,0,0,0,2.35.1"/><path d="M88.78,101.05a.36.36,0,0,1-.14-.35c0-.16.2-.27.52-.36l2.63-.79a.22.22,0,0,0,.14-.26c0-.1-.1-.34-.55-.33h0c-2.49.43-3.81,1-3.94,1.6-.08.37.29.83,1,1.3a.52.52,0,0,0,.33.08.44.44,0,0,0,.41-.19c0-.09,0-.23-.12-.33Z"/><path d="M88.51,102.56l-2.41.59a.39.39,0,0,0-.13.43.45.45,0,0,0,.44.37l.13,0,2.26-.55A.34.34,0,0,0,89,103c-.06-.19-.21-.41-.44-.41"/><path d="M61.81,99.06c-.42-1.26-3-2.36-6.61-2.81-.23,0-.38.11-.4.25s.08.32.34.41c2.83.61,4.51,1.21,5.47,1.93.29.24.42.41.42.59a.55.55,0,0,1-.24.39.48.48,0,0,0-.22.39c0,.35.14.42.36.41a1.55,1.55,0,0,0,.34-.05,1.43,1.43,0,0,0,.54-1.51"/><path d="M55.44,95.07c.1-.52-.54-1.77-3.63-3.21l-.17,0a.15.15,0,0,0-.17.09.35.35,0,0,0,.14.34c.19.13.37.27.57.39l.3.22a8.33,8.33,0,0,1,1.78,1.39.45.45,0,0,1,.21.38.36.36,0,0,1-.15.28c-.1.18,0,.23,0,.25a1.3,1.3,0,0,0,.69.21.42.42,0,0,0,.45-.31"/><path d="M56,93.25c.47.19.9.4,1.28.58a5.94,5.94,0,0,0,1.65.63h.2c.47,0,.78-.18.85-.47a.73.73,0,0,0-.61-.77l-.06.08a.52.52,0,0,1-.5.35,1.36,1.36,0,0,1-.42-.08,43.81,43.81,0,0,1-6-3,.75.75,0,0,0-.3-.08c-.12,0-.19,0-.21.11l.07.25a29,29,0,0,0,4,2.37"/><path d="M33.83,62.36l.05,0a1.92,1.92,0,0,1,1,.8,2.58,2.58,0,0,1,.07,1.2,3.66,3.66,0,0,1-.17.88c0,.06-.13.07-.29.06L32,65l.08-.79c.05-.39.16-.52.23-.57a1.79,1.79,0,0,1,.77-.12h.07l.06-.35-2.53-.32,0,.36h.07a1.9,1.9,0,0,1,.71.31c.07.06.14.22.08.62l-.09.78-2.17-.27c-.16,0-.21,0-.22-.07s0,0,0-.14l.14-1.1c.08-.57.2-.77.29-.84a1.47,1.47,0,0,1,.85-.18h.08l.05-.37-1.63-.19-.58,4.5.36,0v-.09c.08-.34.17-.45.25-.49s.12-.06.31-.06l.35,0L34,66.3c.46.06.59.14.63.19a.88.88,0,0,1,.11.55v.07l.36,0,.58-4.55L33.88,62Z"/><path d="M35.05,57.58a1.94,1.94,0,0,0-1.12,0,4.31,4.31,0,0,0-1.19.7l-.71.56a2.21,2.21,0,0,1-.71.41,1,1,0,0,1-.63,0,.83.83,0,0,1-.56-.37.78.78,0,0,1-.08-.56,1.34,1.34,0,0,1,.56-.7A2.36,2.36,0,0,1,32,57.38h.08l.09-.36-2.34-.39-.08.31.08,0a.78.78,0,0,1,.19.13s0,0,0,.13a2.55,2.55,0,0,1-.27.37,1.71,1.71,0,0,0-.35.64,1.39,1.39,0,0,0,.24,1.26,2.14,2.14,0,0,0,1.2.76,1.91,1.91,0,0,0,1.18-.08,2.7,2.7,0,0,0,.63-.38l.7-.54a6.34,6.34,0,0,1,.86-.58,1.3,1.3,0,0,1,.85,0,1.13,1.13,0,0,1,.72.44.87.87,0,0,1,.13.67,1.35,1.35,0,0,1-.95.93,3.57,3.57,0,0,1-1.15.19h-.08l-.08.34,2.35.33.09-.33-.07,0-.2-.11,0-.11a2.64,2.64,0,0,1,.27-.39,2,2,0,0,0,.39-.76,1.67,1.67,0,0,0-.23-1.41,1.94,1.94,0,0,0-1.24-.83"/><path d="M37.91,54.06a1.09,1.09,0,0,1-.37.5,1.17,1.17,0,0,1-.66-.13l-4.81-1.85.13-.34c.16-.42.34-.66.52-.73a2.37,2.37,0,0,1,1.07.05h.08l.13-.34-1.81-.64-1.73,4.48,1.78.74.13-.35-.07,0a2,2,0,0,1-.82-.69,1.21,1.21,0,0,1,.1-.88l.13-.35,4.69,1.81a1.81,1.81,0,0,1,.69.37c0,.06.07.21-.05.62l0,.07.34.14.92-2.4L37.94,54Z"/><path d="M37.61,49.08l-.76,1.44-1.78-1.86Zm3.22-.86a.7.7,0,0,1-.31.24,3.47,3.47,0,0,1-.74-.05l-6.15-.92-.14.26,3.69,3.9a9.19,9.19,0,0,1,1,1.11.57.57,0,0,1,0,.48l0,.07.31.18.85-1.6L39,51.72l-.05.07a1.29,1.29,0,0,1-.23.27.29.29,0,0,1-.31,0,2,2,0,0,1-.26-.2L37.29,51l.94-1.78,1,.15.4.09a1.53,1.53,0,0,1,.23.08q.15.08.15.15a1.63,1.63,0,0,1-.13.42l0,.07.32.17,1.07-2-.32-.17Z"/><path d="M42.58,44.69a2.39,2.39,0,0,1-.54,1.5c-.14.2-.22.24-.24.24s-.11,0-.26-.1l-4.2-3.07c-.15-.11-.17-.18-.17-.2s0-.12.14-.29a2.3,2.3,0,0,1,1.54-1,3.11,3.11,0,0,1,.33,0,3.52,3.52,0,0,1,2,.78,2.92,2.92,0,0,1,1.41,2.17m.26-2a4.18,4.18,0,0,0-1.05-1.09A3.25,3.25,0,0,0,38.5,41,3.71,3.71,0,0,0,37,42.29l-1.36,1.86.3.21,0-.06c.23-.26.36-.32.46-.32a1.15,1.15,0,0,1,.58.3L40.69,47c.38.28.45.42.46.48s0,.22-.17.53L41,48l.28.21,1.41-1.91a3.94,3.94,0,0,0,.68-1.45,2.33,2.33,0,0,0,0-.84,3,3,0,0,0-.51-1.32"/><path d="M46.46,41.14a1.41,1.41,0,0,1-1.35.32,4.24,4.24,0,0,1-2-1.28,4.43,4.43,0,0,1-1.33-2,1.39,1.39,0,0,1,.3-1.34,1.24,1.24,0,0,1,1-.37,2.47,2.47,0,0,1,.36,0,4.16,4.16,0,0,1,2,1.29,4.23,4.23,0,0,1,1.34,2,1.39,1.39,0,0,1-.3,1.33M46.2,37a4.15,4.15,0,0,0-2.49-1.28A2.48,2.48,0,0,0,41,38.49a4.73,4.73,0,0,0,3.75,3.74l.36,0a2.4,2.4,0,0,0,1.75-.73,2.5,2.5,0,0,0,.69-2A4.12,4.12,0,0,0,46.2,37"/><path d="M50.07,34.64a4.06,4.06,0,0,0-1.29-.16H47.73a2.62,2.62,0,0,1-.75-.1,1.1,1.1,0,0,1-.52-.38.85.85,0,0,1-.21-.63.71.71,0,0,1,.27-.49,1.23,1.23,0,0,1,.87-.22,2.42,2.42,0,0,1,1.3.66l.06.05.29-.23-1.62-1.74-.26.21,0,.06a.53.53,0,0,1,.07.23L47.2,32s-.07,0-.43.14a1.77,1.77,0,0,0-.66.29,1.42,1.42,0,0,0-.57,1.16A2.06,2.06,0,0,0,46,34.93a1.91,1.91,0,0,0,1,.66,3.17,3.17,0,0,0,.73.09h1a4,4,0,0,1,.95.07,1.22,1.22,0,0,1,.72.47,1.17,1.17,0,0,1,.29.78.78.78,0,0,1-.31.6,1.31,1.31,0,0,1-1.3.17,3.58,3.58,0,0,1-1-.54l-.06,0-.28.22,1.67,1.69.27-.21,0-.07-.08-.2,0-.11a1.61,1.61,0,0,1,.45-.14,2,2,0,0,0,.77-.37,1.65,1.65,0,0,0,.68-1.25,2.25,2.25,0,0,0-1.37-2.1"/><path d="M57.68,27.5a2.38,2.38,0,0,1-.31-.94.83.83,0,0,1,.4-.47l.07,0-.16-.32-1.86.9L56,27l.07,0a.79.79,0,0,1,.6,0c.09.05.27.23.56.83l1.16,2.4a4,4,0,0,1,.45,1.35,1.21,1.21,0,0,1-.8,1.25,1.13,1.13,0,0,1-1.37-.17,3.32,3.32,0,0,1-.68-1l-1.44-3c-.19-.41-.19-.58-.17-.64s.11-.21.42-.4l.07,0-.16-.33-2.25,1.09.15.33.08,0a.93.93,0,0,1,.56-.09c.07,0,.2.13.39.55L55,31.91a4,4,0,0,0,.92,1.29,1.82,1.82,0,0,0,1.18.45,2.54,2.54,0,0,0,1-.25,1.9,1.9,0,0,0,1.21-1.87,4.46,4.46,0,0,0-.49-1.64Z"/><path d="M63.84,24.35a.82.82,0,0,1,.47-.41l.07,0-.1-.35-2,.63.12.35h.07a.9.9,0,0,1,.56,0,1.86,1.86,0,0,1,.48.93l.93,3-4.29-3.56-1.47.46.12.35.09,0a.7.7,0,0,1,.33,0c.06,0,.16.05.35.2l.14.11L61,30.2a2.12,2.12,0,0,1,.17,1q-.06.21-.48.42l-.07,0,.1.34,2-.63L62.65,31h-.08A.84.84,0,0,1,62,31a1.92,1.92,0,0,1-.47-.93l-1.11-3.51,5,4.1.26-.08L64,25.32a2.12,2.12,0,0,1-.17-1"/><path d="M68.91,29.39l-.28,0a.69.69,0,0,1-.34-.06c-.05,0-.15-.16-.24-.63l-.89-4.47c-.09-.43-.06-.6,0-.67s.17-.18.54-.28l.08,0-.07-.36-2.56.51.07.36h.09a1,1,0,0,1,.6,0c.08.05.18.2.25.63l.9,4.47c.1.47,0,.62,0,.67s-.18.17-.56.28l-.07,0,.07.36,2.55-.51L69,29.38Z"/><path d="M71.17,28.88c-.14,0-.19,0-.21,0s-.07-.07-.09-.25l-.45-5.19c0-.19,0-.24,0-.26a.59.59,0,0,1,.32-.08l.29,0a2.24,2.24,0,0,1,1.47.51,3.23,3.23,0,0,1,1,2.24,2.9,2.9,0,0,1-.71,2.49,2.37,2.37,0,0,1-1.47.59Zm1.7-6.09a3.66,3.66,0,0,0-2-.3l-2.29.2,0,.37h.08c.35,0,.49.06.54.12s.13.19.17.65l.4,4.53c0,.47,0,.62,0,.66a.92.92,0,0,1-.52.22l-.07,0,0,.36,2.35-.21A3.78,3.78,0,0,0,73.13,29a2.49,2.49,0,0,0,.65-.54,2.93,2.93,0,0,0,.66-1.26,4.43,4.43,0,0,0,.13-1.5,3.22,3.22,0,0,0-1.7-2.89"/><path d="M79.84,25.86a4.32,4.32,0,0,1-.62,2.33,1.39,1.39,0,0,1-1.2.65,1.43,1.43,0,0,1-1.13-.79,4.52,4.52,0,0,1-.38-2.36,4.47,4.47,0,0,1,.63-2.31,1.4,1.4,0,0,1,1.14-.67h.07a1.39,1.39,0,0,1,1.12.76,4.25,4.25,0,0,1,.37,2.39m-1.47-3.7a2.42,2.42,0,0,0-2,.83,4.14,4.14,0,0,0-1,2.64,4.2,4.2,0,0,0,.66,2.65A2.38,2.38,0,0,0,78,29.39h.14a2.45,2.45,0,0,0,1.81-.82,4.05,4.05,0,0,0,1-2.66,4.07,4.07,0,0,0-.69-2.72,2.44,2.44,0,0,0-1.89-1"/><path d="M85.62,23.16a.7.7,0,0,1-.12.2l-.08,0h-.06s-.08,0-.38-.24a1.92,1.92,0,0,0-.66-.31,1.44,1.44,0,0,0-1.25.33,2.15,2.15,0,0,0-.67,1.25,1.9,1.9,0,0,0,.16,1.17,2.67,2.67,0,0,0,.42.61l.58.66a5,5,0,0,1,.64.82,1.34,1.34,0,0,1-.29,1.59.82.82,0,0,1-.65.16,1.32,1.32,0,0,1-1-.87A3.53,3.53,0,0,1,82,27.42v-.07l-.35-.06-.17,2.37.34.06,0-.08.09-.19.12,0a3.21,3.21,0,0,1,.41.26,2.11,2.11,0,0,0,.78.33l.35,0a1.62,1.62,0,0,0,1-.36,2,2,0,0,0,.76-1.29,2,2,0,0,0-.08-1.12,4.46,4.46,0,0,0-.78-1.14l-.61-.67a2.6,2.6,0,0,1-.46-.67,1,1,0,0,1-.06-.65.86.86,0,0,1,.33-.57.75.75,0,0,1,.55-.12A1.25,1.25,0,0,1,85,24a2.44,2.44,0,0,1,.36,1.41v.07l.37.07L86,23.15l-.32-.06Z"/><path d="M95.53,33.69c-.3-.18-.39-.31-.42-.38a1.17,1.17,0,0,1,.18-.65l1.83-4.16c.17-.38.29-.51.37-.55A.86.86,0,0,1,98,28l.08,0,.14-.33L96.63,27,93,30.77l.33-5.24-1.62-.71-.15.33.08,0c.33.17.44.3.45.38a1.08,1.08,0,0,1-.16.65L90.28,30a2,2,0,0,1-.52.85.81.81,0,0,1-.64,0l-.08,0-.13.33,1.92.85.14-.33-.06,0c-.29-.18-.37-.31-.39-.38a1.8,1.8,0,0,1,.26-1L92.22,27l-.35,5.5.23.09,4-4.15L94.4,32.14c-.22.5-.34.63-.4.67a.88.88,0,0,1-.58-.05l-.08,0-.15.33,2.27,1,.14-.34Z"/><path d="M100.42,35l0,0a2.07,2.07,0,0,1-1.1.53h0a2.61,2.61,0,0,1-1.12-.46,3.35,3.35,0,0,1-.72-.52c-.05-.06,0-.19.07-.28l1.3-2.06.67.45c.33.21.41.36.42.45a1.76,1.76,0,0,1-.21.75l0,.07.31.2,1.36-2.15-.3-.2,0,.06a1.7,1.7,0,0,1-.58.51c-.12,0-.32,0-.59-.18l-.67-.46,1.17-1.85c.09-.13.13-.17.16-.17l.12,0,.95.6c.46.3.61.5.63.61a1.45,1.45,0,0,1-.2.85l0,.07.32.2.86-1.41-3.83-2.42-.19.31.07,0c.27.22.33.35.34.43s0,.26-.25.62l-2.44,3.84c-.25.4-.4.48-.45.49a1,1,0,0,1-.54-.13l-.07,0-.19.31,3.87,2.46,1.37-1.4Z"/><path d="M104.39,40.24a1.13,1.13,0,0,1-.24-.41,2.14,2.14,0,0,1,.06-.67l.61-3.09,2.05-.65a3.16,3.16,0,0,1,1-.18.89.89,0,0,1,.44.2l.06.06.24-.28L107,33.85l-.24.29.06.06a.74.74,0,0,1,.25.26.2.2,0,0,1,0,.24l-.13.1a3.18,3.18,0,0,1-.51.2l-1.45.43.3-1.57q0-.13.06-.24a.84.84,0,0,1,.14-.27c.07-.08.12-.11.21-.08a1.53,1.53,0,0,1,.36.23l.07,0,.24-.28-2-1.7-.24.28.06.06a.8.8,0,0,1,.28.56,8.56,8.56,0,0,1-.23,1.53l-.36,1.79-2.18.66a9,9,0,0,1-1.12.3.71.71,0,0,1-.45-.15l-.08,0-.24.28,1.6,1.33.23-.28-.06-.06a1.55,1.55,0,0,1-.25-.3.24.24,0,0,1,0-.28,1,1,0,0,1,.3-.16,3.87,3.87,0,0,1,.53-.18l1.55-.49c-.2,1-.34,1.68-.4,1.93a1.68,1.68,0,0,1-.18.49l-.19.08a1.46,1.46,0,0,1-.37-.24l-.08,0-.23.28,2,1.66.23-.27Z"/><path d="M106.43,41.25l3.29-3.15c.31-.3.47-.36.57-.37s.23.05.51.31l.06.06.26-.25L109.33,36l-.27.25.06.06c.24.3.29.46.28.54s-.07.24-.39.55l-3.29,3.15c-.33.33-.49.38-.55.38s-.24-.06-.53-.31l-.07-.06-.26.25,1.8,1.88.26-.25-.05-.07c-.24-.3-.3-.46-.3-.54s.06-.21.41-.55"/><path d="M110.43,46.14h.06l.1-.41h-.12a3.07,3.07,0,0,1-.9-.13,1.81,1.81,0,0,1-1-.66,1.61,1.61,0,0,1-.25-1.56,3.77,3.77,0,0,1,1.35-1.75,4.22,4.22,0,0,1,2.13-1,1.51,1.51,0,0,1,1.46.55,1.43,1.43,0,0,1,.19,1.46,3.43,3.43,0,0,1-.59,1l0,.06.22.28,1.9-1.59-.2-.26-.07,0a.32.32,0,0,1-.23,0l-.14-.09a3.64,3.64,0,0,1-.18-.49,2.7,2.7,0,0,0-.45-.84,2.53,2.53,0,0,0-2.11-1h-.08a4.18,4.18,0,0,0-2.49,1,4.1,4.1,0,0,0-1.51,2.11A2.56,2.56,0,0,0,108,45.2a2.44,2.44,0,0,0,1.4.87,3.1,3.1,0,0,0,.73.09l.32,0"/><path d="M115.41,46.53l-1.7,1.93-.81-1.41Zm-2.65,5.13a.64.64,0,0,1-.05-.39,2.15,2.15,0,0,1,.44-.61l4-4.74-.15-.25-5.25,1.07a8.69,8.69,0,0,1-1.45.23.54.54,0,0,1-.43-.23l0-.06-.31.19.92,1.56.3-.19,0-.07a1.1,1.1,0,0,1-.11-.35.29.29,0,0,1,.18-.25,1.08,1.08,0,0,1,.31-.11l1.18-.27,1,1.74-.63.74a4,4,0,0,1-.29.29c-.11.1-.16.14-.2.15s-.16.07-.2,0a1.35,1.35,0,0,1-.29-.32l0-.07-.32.18,1.15,2,.31-.18Z"/><path d="M120.33,54.44c.15,0,.3.17.44.43l0,.07.33-.14-.79-1.95L120,53l0,.07c.09.34.07.49,0,.55s-.28.31-.9.56l-2.86,1.15,3.21-4.55L119,49.34l-.35.14,0,.09a.85.85,0,0,1,.07.34.87.87,0,0,1-.17.36l-.09.14-4.16,1.68a2.46,2.46,0,0,1-1,.24q-.22,0-.45-.45l0-.07-.33.13.78,2,.33-.14v-.08c-.08-.32-.06-.48,0-.54s.28-.31.9-.55l3.41-1.38-3.68,5.21,0,0,.11.26,5.08-2a2,2,0,0,1,1-.24"/><path d="M116.75,61.14a1.31,1.31,0,0,1-.54-2.28,4.47,4.47,0,0,1,2.17-1,6.66,6.66,0,0,1,1.48-.2,2.67,2.67,0,0,1,.9.13,1.4,1.4,0,0,1,1,1,1.42,1.42,0,0,1-.41,1.29,4.37,4.37,0,0,1-2.19,1,4.29,4.29,0,0,1-2.4.07m1.43,1.16a5.66,5.66,0,0,0,1.24-.15,4.15,4.15,0,0,0,2.41-1.45,2.5,2.5,0,0,0,.46-2.1A2.41,2.41,0,0,0,120.92,57a4.12,4.12,0,0,0-2.81-.2,4.17,4.17,0,0,0-2.35,1.39,2.4,2.4,0,0,0-.52,2.16,2.48,2.48,0,0,0,1.34,1.64,3.65,3.65,0,0,0,1.6.36"/><path d="M123.47,65.72h-.06a.62.62,0,0,1-.24,0s0,0-.06-.12a3.35,3.35,0,0,1,.11-.43,2,2,0,0,0,.1-.73,1.44,1.44,0,0,0-.69-1.09,2.06,2.06,0,0,0-1.39-.26,1.87,1.87,0,0,0-1.07.5,2.46,2.46,0,0,0-.45.57l-.46.76a5.79,5.79,0,0,1-.59.85,1.3,1.3,0,0,1-.77.37,1.18,1.18,0,0,1-.84-.17.83.83,0,0,1-.35-.57,1.32,1.32,0,0,1,.54-1.2,3.66,3.66,0,0,1,1-.61l.06,0,0-.36-2.3.55,0,.34h.08l.22,0,.07.1a3.14,3.14,0,0,1-.12.46,2.08,2.08,0,0,0-.09.84,1.72,1.72,0,0,0,.72,1.24,2,2,0,0,0,1.16.35l.3,0a2,2,0,0,0,1-.41,4.2,4.2,0,0,0,.85-1.09l.46-.78a2.79,2.79,0,0,1,.5-.64,1.17,1.17,0,0,1,.6-.25.86.86,0,0,1,.65.15.77.77,0,0,1,.28.49,1.25,1.25,0,0,1-.27.85,2.41,2.41,0,0,1-1.24.77l-.07,0,0,.37,2.32-.48Z"/><path d="M74.3,113.92a.56.56,0,0,1-.61-.39,5.26,5.26,0,0,1,0-2.92.64.64,0,0,1,.57-.54.68.68,0,0,1,.67.49,9.29,9.29,0,0,1,0,2.79.78.78,0,0,1-.68.57"/><path d="M77.15,113.8c-.33,0-.67-.11-.68-.45l0-2.38a1.1,1.1,0,0,1,.21-.82.7.7,0,0,1,.44-.23.78.78,0,0,1,.78.85V113a.71.71,0,0,1-.16.52.77.77,0,0,1-.55.25"/><path d="M68.52,115.68a2.25,2.25,0,0,1-.36,0,.53.53,0,0,1-.43-.54.48.48,0,0,1,.34-.47l.31-.06a.7.7,0,0,1,.62.22.68.68,0,0,1,0,.64.63.63,0,0,1-.49.22"/><path d="M82.49,115.87a.51.51,0,0,1-.47-.18.55.55,0,0,1-.06-.49.83.83,0,0,1,.67-.56h.22a.52.52,0,0,1,.44.43.82.82,0,0,1-.43.68.8.8,0,0,1-.37.12"/><path d="M70,114.59a.92.92,0,0,1-.28,0l-.61-.44a.26.26,0,0,1,.06-.27,6,6,0,0,1,3.25-1.5h0a.4.4,0,0,1,.42.37.67.67,0,0,1-.4.74,4,4,0,0,0-1.93.8.76.76,0,0,1-.53.32"/><path d="M81.15,114.76c-.06,0-.09,0-.18-.12a4.85,4.85,0,0,0-2.19-1.17c-.11,0-.21,0-.23-.3-.07-.55,0-.71,0-.76A5.69,5.69,0,0,1,82,113.9l.1.18-.11.13-.67.48Z"/><path d="M79.05,119.66a.58.58,0,0,1-.43-.16,22.46,22.46,0,0,0-2.55-1.26.52.52,0,0,1-.23-.61.9.9,0,0,1,.75-.66l.21,0a7.66,7.66,0,0,0,1.42.67,5.49,5.49,0,0,1,1.45.74.5.5,0,0,1,.25.29.35.35,0,0,1-.1.24l-.4.54a.63.63,0,0,1-.37.19"/><path d="M68.83,118.86l-.16,0c-.07-.06-.09-.2-.07-.39.09-1.41,1.4-2.27,2.8-3.18.45-.3.9-.6,1.34-.93a1,1,0,0,1,.41-.2.25.25,0,0,1,.21.07l.69.41c.1.06.17.13.17.18a.34.34,0,0,1-.14.23,9.21,9.21,0,0,1-1.44,1,5.55,5.55,0,0,0-2.22,1.93,2.4,2.4,0,0,1-1.56.94Z"/><path d="M72.67,119.5a.68.68,0,0,1-.29,0l-.55-.48c-.25-.3-.21-.59.18-1a10.57,10.57,0,0,1,1.79-1.4,12.7,12.7,0,0,0,1.89-1.5,1,1,0,0,1,.7-.44h.17l.47-.06c.22,0,.48,0,.54.07s-.22.59-.31.75a8.51,8.51,0,0,1-2.32,2,5.32,5.32,0,0,0-1.93,1.8c-.11.28-.24.33-.34.33"/><path d="M82.39,118.39a1.69,1.69,0,0,1-.45,0,1.65,1.65,0,0,1-.83-.52,4.13,4.13,0,0,0-1.1-.78c-.31-.14-.6-.26-.89-.37a11.14,11.14,0,0,1-1.15-.5.51.51,0,0,1-.31-.35c-.06-.24.17-.56.39-.84s.19-.21.29-.22a.61.61,0,0,1,.31.11,6.91,6.91,0,0,0,1.33.69,6.39,6.39,0,0,1,3.13,2.31.25.25,0,0,1,0,.21.23.23,0,0,1-.16.14,2.46,2.46,0,0,1-.6.12"/><path d="M63.66,113c.68,0,1.09.14,1.21.38a.76.76,0,0,1-.13.69c-.16.28-.13.43-.08.53a.29.29,0,0,0,.26.11c.32,0,.76-.43,1-1.15,0-.29.31-.48.87-.61a.7.7,0,0,0,.38-.78c-.05-.23-.19-.39-.34-.37a.33.33,0,0,0-.21.12,1.72,1.72,0,0,1-.85.47l-.3,0a1.44,1.44,0,0,1-1.44-.67l-.88-1.45c-.12-.17-.24-.26-.35-.25h-.05l-.09.09a.6.6,0,0,0,0,.51l.44.87a.44.44,0,0,1,.06.35.53.53,0,0,1-.36.17h0c-1.27.11-2.33-.52-3.33-1.88a.53.53,0,0,0-.41-.28h0l-.12.12a.48.48,0,0,0,.11.43l.45.66c.15.2.14.28.13.31s-.1.09-.23.11a5,5,0,0,1-3.3-1.25.78.78,0,0,0-.39-.12c-.16.14-.16.23-.1.37l.16.4c0,.09.06.19,0,.25s-.13.09-.27.1l-1.82.2c-.26,0-.43.12-.43.26s.25.25.67.24a11.68,11.68,0,0,1,4.13.2c.09,0,.2,0,.23.12a.47.47,0,0,1-.08.27l-.67.69c-.18.16-.26.32-.22.44s.07.14.25.12a.84.84,0,0,0,.24-.06,6.09,6.09,0,0,1,2.5-1.07,1.83,1.83,0,0,1,.67.06.4.4,0,0,1,.36.25.44.44,0,0,1,0,.44l-.36.8c-.06.23-.09.39,0,.48h.16a.64.64,0,0,0,.36-.19c.6-.68,1.36-1.47,2.11-1.52Zm-.36,3.63c-.26,0-.44-.09-.51-.22a.42.42,0,0,1,.06-.38L63.5,115a.44.44,0,0,0,0-.4.33.33,0,0,0-.28-.11,1.27,1.27,0,0,0-.68.39,4.15,4.15,0,0,1-2.75,1.47,4.85,4.85,0,0,1-.76,0,.72.72,0,0,1-.48-.34.69.69,0,0,1,.16-.55l.82-1c.09-.23.1-.36,0-.45l0,0-.18,0a.92.92,0,0,0-.26.07l-2,1a2,2,0,0,1-.62.16,1.26,1.26,0,0,1-1.08-.42c-.11-.11-.17-.21-.15-.29l.13-.15a2.84,2.84,0,0,0,.88-.88c.11-.16.14-.28.1-.38s-.2-.2-.48-.2c-.72.11-1.37.18-2,.23a4,4,0,0,1-2.33-.21.56.56,0,0,1-.28-.49c0-.21.23-.43.65-.7l2-.78c.21-.09.32-.2.35-.33a.38.38,0,0,0-.17-.38.44.44,0,0,1-.11-.32.56.56,0,0,1,.28-.29,1.55,1.55,0,0,1,.75-.27,3.36,3.36,0,0,1,2.22,1,.9.9,0,0,0,.35.14c.18-.15.18-.26.11-.48l-.24-.79c-.07-.2-.08-.35,0-.44a.42.42,0,0,1,.34-.15c1-.08,2,.48,3.09,1.83.2.21.38.32.52.3h.06l.14-.11a.71.71,0,0,0-.13-.6l-.35-.8a.66.66,0,0,1,.06-.49.74.74,0,0,1,.52-.27,3.64,3.64,0,0,1,.44-.07c.72-.06,1.14.15,1.29.63l1,1.71a.65.65,0,0,0,.55.35c.2,0,.4-.17.61-.5s.24-.35.34-.35c.32,0,.85.3,1.57,1a1.17,1.17,0,0,0,1,.38,1.81,1.81,0,0,0,.62-.17,7.32,7.32,0,0,1,2.48-.67,4.4,4.4,0,0,1,1.09,0c.28.09.43.29.38.53s-.42.63-1.1.68a1.72,1.72,0,0,1-.33,0,.79.79,0,0,0-.36,0,7.48,7.48,0,0,0-2.83,1.45,1.43,1.43,0,0,1-.88.36,1.34,1.34,0,0,0-.51.14c-.29,0-.63.44-1.06,1a4.48,4.48,0,0,1-2.7,2"/><path d="M47.11,106.05c.47,0,.76.06.91.29a1.3,1.3,0,0,1,0,.27c0,.23.07.55.38.54l1.55-.1c.17,0,.25,0,.3-.11s0-.21-.07-.33c-.31-.63-.5-.73-.8-.7l-.17,0a.86.86,0,0,1-.46-.09c-.67-.36-.95-1.44-.85-3.3a.52.52,0,0,0-.06-.45l-.11,0c-.15,0-.23.13-.28.45l-.14.91c0,.39-.19.4-.24.4a.52.52,0,0,1-.3-.06,3.35,3.35,0,0,1-1.55-2.32c0-.4.11-2.32-.59-1.13-.25.17-.66-.57-.91-1.14,0-.2-.16-.32-.29-.31a.41.41,0,0,0-.2.42.54.54,0,0,1-.2.53c-.17.07-.33.17-.32.3s.12.17.38.22c.62.11,1.19.83,1.68,2.13.08.17.07.23.06.25l-1.85.06h-.25c-.24,0-.28.13-.28.19s.24.36.5.38l1.88.26a1.61,1.61,0,0,1,1.48,1,.63.63,0,0,1,.14.52c0,.08-.08.13-.2.16a13.87,13.87,0,0,1-2.1.54c-.29,0-.42.11-.44.23s.12.23.51.36a2,2,0,0,0,.77.06,9.32,9.32,0,0,0,1.07-.19,8.31,8.31,0,0,1,1-.18m6.23,3.23a.58.58,0,0,1-.37-.12,5.4,5.4,0,0,0-4.1-1.28,8.71,8.71,0,0,0-1.76.33.33.33,0,0,1-.24-.15.75.75,0,0,1,0-.56c0-.36-.15-.51-.44-.48a1,1,0,0,0-.28,0,7.54,7.54,0,0,1-.8.1c-1.74.14-2.83-.31-3.53-1.47a.47.47,0,0,1,0-.33.48.48,0,0,1,.32-.14l2.39-.3c.26,0,.34-.13.36-.23s-.08-.31-.36-.38c-2.41-.38-3.86-1.1-4.3-2.13a.42.42,0,0,1,0-.37c0-.08.18-.14.4-.15l1.83.17c.3,0,.43-.07.46-.18s-.1-.26-.35-.42l-1.83-1a.47.47,0,0,1-.21-.49c.07-.17.3-.29.63-.32s.54,0,.72,0a.78.78,0,0,0,.58-.22c.2-.22.19-.58.18-1.18l0-.56c0-.41.11-.65.24-.67s.37.1,1,.91c.28.35.47.54.65.52s.33-.39.46-1c.08-.28.22-.3.26-.3a.74.74,0,0,1,.43.17c.74.42.75,2.31.67,4.1a.39.39,0,0,0,.1.35.35.35,0,0,0,.27.12c.1,0,.33-.08.4-.55l.25-1.17c.09-.32.23-.49.44-.51a1.09,1.09,0,0,1,.67.29c.7.62.9,1.65.82,4.08a.57.57,0,0,0,.14.43.39.39,0,0,0,.26.09c.17,0,.4-.18.54-.57.07-.16.16-.27.24-.28s.21.1.3.41a6.39,6.39,0,0,0,2.81,4.71.45.45,0,0,1,.16.5.3.3,0,0,1-.26.2"/><path d="M52.79,105a.53.53,0,0,1-.52-.37.51.51,0,0,1,.13-.5,1.4,1.4,0,0,1,.76-.33.67.67,0,0,1,.55.18.62.62,0,0,1,.16.48,1.2,1.2,0,0,1-1,.54Z"/><path d="M48.2,110.84h-.28a.74.74,0,0,1-.49-.68.8.8,0,0,1,.3-.68,1.85,1.85,0,0,1,.43-.13c.4,0,.63.26.73.87a.55.55,0,0,1-.13.4.81.81,0,0,1-.56.22"/><path d="M54.38,108.45c-.16,0-.51-.23-.87-.81a1.77,1.77,0,0,0-1-.9.6.6,0,0,1-.39-.68.53.53,0,0,1,.5-.44h.21a4,4,0,0,0,1-.26,1.06,1.06,0,0,1,.34-.1.52.52,0,0,1,.57.32.57.57,0,0,1-.15.6.91.91,0,0,0-.36,1c.3.69.32,1.07.25,1.21Z"/><path d="M49.93,111.15a.46.46,0,0,1-.49-.37,2.52,2.52,0,0,0-.22-1.14.84.84,0,0,1-.08-.84.5.5,0,0,1,.42-.27.92.92,0,0,1,.51.14,1.55,1.55,0,0,0,1.24.45,1.45,1.45,0,0,1,1,.24c.17.15.18.25.17.3a3.06,3.06,0,0,1-.38.06h-.06a1.6,1.6,0,0,0-1.47.89.87.87,0,0,1-.69.53"/><path d="M36,94c-.17,0-.24.13-.25.21a.25.25,0,0,0,.28.25c.74,0,1.37,0,1.68.32A.33.33,0,0,0,38,95h0l.14-.13a.38.38,0,0,0-.07-.36c-.32-.41-.2-.89.34-1.59a.44.44,0,0,0,.14-.42l0,0-.17,0a.55.55,0,0,0-.22.07,1.44,1.44,0,0,1-.38.08.7.7,0,0,1-.69-.28,2,2,0,0,1,0-1.71c.27-.83.59-1.73.88-2.58,0-.15.09-.34,0-.44h-.1a.4.4,0,0,0-.32.29c-.22.47-.39.91-.54,1.3-.24.65-.43,1.16-.67,1.18s-.75-.65-1.08-1.17A2.15,2.15,0,0,1,35.26,87a.49.49,0,0,0,0-.41l-.14,0a.29.29,0,0,0-.25.22c-.23.4-.37.58-.5.59s-.46-.27-.79-.67a.34.34,0,0,0-.58.11.43.43,0,0,0,.08.48l.15.14c.3.31.84.82.79,1l-.15,0a2.79,2.79,0,0,1-.81-.1h-.2a.26.26,0,0,0-.25.19c0,.11.07.26.35.3,1.63.15,2.84,1.42,2.76,2.14,0,.25-.22.39-.56.41A2.84,2.84,0,0,1,34,91.21l-.19,0a.26.26,0,0,0-.27.24c0,.13.08.29.38.31,1.73.11,2.94,1.1,2.91,1.7,0,.36-.44.53-.8.61Zm5.55,4.72a.91.91,0,0,1-.31,0,8.88,8.88,0,0,1-2.76-2.06,2.45,2.45,0,0,0-1.82-1.37,4.32,4.32,0,0,1-3-1.39c-.12-.18-.1-.27-.08-.3s.12-.1.29-.11l.8,0c.31,0,.35-.15.36-.21s-.17-.35-.47-.43c-2.22-.38-3.3-1-3.43-2-.08-.23-.08-.37,0-.46s.18-.13.39-.15a3.2,3.2,0,0,1,.44,0,1.6,1.6,0,0,0,.22,0c.08,0,.25,0,.29-.15s0-.2-.45-.36a4.25,4.25,0,0,1-1.86-1.23.77.77,0,0,1,0-.69.49.49,0,0,1,.4-.23,1,1,0,0,1,.34,0,.89.89,0,0,0,.48.13.29.29,0,0,0,.27-.18c.08-.19-.05-.49-.35-.79a.58.58,0,0,1-.07-.49.63.63,0,0,1,.5-.2,1.91,1.91,0,0,0,.45,0,1.29,1.29,0,0,0,.82-.44.64.64,0,0,1,.29-.12c.2,0,.37.11.54.39s.35.7.64.67c.13,0,.31-.11.44-.53s.29-.8.54-.82a.61.61,0,0,1,.37.12c.49.27.5,1.09,0,2.43a.53.53,0,0,0,.06.49l0,0,.18.06c.24,0,.49-.33.63-.74.13-1,.43-1.56.92-1.59a1.1,1.1,0,0,1,.35,0,1,1,0,0,1,.73.5c.35.61.25,1.76-.28,3.45a.7.7,0,0,0,0,.63.34.34,0,0,0,.28.13.74.74,0,0,0,.44-.26.94.94,0,0,1,.57-.42.29.29,0,0,1,.26.13A1.62,1.62,0,0,1,40,91.7c-1.36,2.8-.82,4.93,1.63,6.33a.54.54,0,0,1,.21.55.3.3,0,0,1-.27.17"/><path d="M41,97.21c-.13,0-.24-.1-.27-.28a3.68,3.68,0,0,0-.63-2.22.79.79,0,0,1-.1-.78.45.45,0,0,1,.38-.23h.24a4.2,4.2,0,0,0,1.54.35.54.54,0,0,1,.51.46.44.44,0,0,1-.22.48,1.25,1.25,0,0,0-1,1.48c0,.49-.23.72-.41.73"/><path d="M41.92,93.3c-.12,0-.23,0-.35,0-.37-.06-.6-.24-.62-.53a.7.7,0,0,1,.46-.66l.38-.07a.74.74,0,0,1,.59.16.87.87,0,0,1,.18.68c-.07.25-.28.39-.64.42"/><path d="M35.92,98.53a.58.58,0,0,1-.63-.34,1,1,0,0,1,.05-.94.72.72,0,0,1,.53-.32.59.59,0,0,1,.64.53,1,1,0,0,1-.07.75.73.73,0,0,1-.52.32"/><path d="M37.29,99.43a.56.56,0,0,1-.51-.19.39.39,0,0,1-.05-.38A4.59,4.59,0,0,0,37,97.39a.69.69,0,0,1,.6-.71.59.59,0,0,1,.57.33,1.63,1.63,0,0,0,1,1c.73.38,1,.73.92.86s-.13.12-.3.14a2.42,2.42,0,0,1-.27,0,1.7,1.7,0,0,0-.94-.24A.68.68,0,0,0,38,99a.92.92,0,0,1-.68.4"/><path d="M29.59,74.9c0,.06,0,.18.1.48.53.86,1.12,1.9.92,2.44a.58.58,0,0,1-.39.33c-.12,0-.33.07-.38.21s.08.29.13.34a1.28,1.28,0,0,0,.52.32c.42.18.67.32.46.85l.06.6c.31.31.58.44.79.41a.35.35,0,0,0,.33-.26.79.79,0,0,0-.4-.84c-.22-.07-.33-.15-.35-.25s.05-.27.4-.58c.78-.87.81-1,.77-1.13v-.06l-.13,0a1,1,0,0,0-.31.12,1.6,1.6,0,0,1-.29,0c-.39,0-.52-.15-.56-.82,0-.89.12-1,.51-1.24.86-.53,1-.71,1-.86s-.19-.16-.6-.14a1.09,1.09,0,0,1-.25.06.17.17,0,0,1-.15,0c-.05-.06-.05-.18,0-.35a2.92,2.92,0,0,1,.94-1.8c.15-.2.27-.38.22-.53s-.27-.14-.42-.13a1.48,1.48,0,0,0-1,.49,1.35,1.35,0,0,0-.21,1L31,75c-.05.21-.13.47-.29.49a.37.37,0,0,1-.27-.14c-.5-.44-.66-.5-.74-.48h-.05ZM33.31,85,33.09,85a1.63,1.63,0,0,1-.8-1.18c-.35-1.89-.81-2.41-1.4-2.63-.88-.36-1-.78-1-1.06,0-.78-.32-1-.7-1.13a2,2,0,0,1-1.59-1.38c-.17-.64-.11-.9,0-1a.3.3,0,0,1,.23-.11,1.93,1.93,0,0,1,.92.29.4.4,0,0,0,.21,0,.27.27,0,0,0,.23-.14.73.73,0,0,0,0-.64l-.63-1.13a1.35,1.35,0,0,1,.19-1.59c.35-.44.57-.55.67-.56a.18.18,0,0,1,.18.11c.46.71.67.77.8.77s.29-.49.3-.64c.07-1.13.32-2.49,1.05-2.56a1,1,0,0,1,.4.07.81.81,0,0,0,.62.21,1.8,1.8,0,0,0,1.1-.69.88.88,0,0,1,.38-.16c.13,0,.29,0,.42.43a2.32,2.32,0,0,1-.74,2.29c-.22.34-.29.53-.23.64a.19.19,0,0,0,.22.09,3,3,0,0,0,1-.43.57.57,0,0,1,.29-.14q.22,0,.27.48c.15,1-.55,1.78-2.27,2.65a.48.48,0,0,0-.34.48.31.31,0,0,0,.36.28,1.12,1.12,0,0,0,.33-.12,1.85,1.85,0,0,1,.93-.44.47.47,0,0,1,.53.28c.09.26,0,.79-.63,1.4-.37.59-.59.88-1,1S33,78.92,33,79a.43.43,0,0,0,.13.4c.23.22.23.51,0,.88-.63.55-.58,1.8.18,3.79a.78.78,0,0,1,.19.76.24.24,0,0,1-.21.15"/><path d="M36,80.63a1.12,1.12,0,0,1-.62-.14.52.52,0,0,1-.22-.62.67.67,0,0,1,.59-.46c.48,0,.76.11.86.3a.8.8,0,0,1,0,.69,1.08,1.08,0,0,1-.58.23"/><path d="M28.37,82.9a.83.83,0,0,1-.49-.11.7.7,0,0,1-.18-.73.86.86,0,0,1,.52-.61.79.79,0,0,1,.25,0,.49.49,0,0,1,.46.16,1,1,0,0,1,.05.89.79.79,0,0,1-.61.45"/><path d="M31.74,84.56a.42.42,0,0,1-.23-.08c-.49-.43-.89-.71-1.28-.68a.64.64,0,0,0-.42.22,1.38,1.38,0,0,1-.41.11.51.51,0,0,1-.48-.18.54.54,0,0,1,0-.53A10.93,10.93,0,0,0,29.63,82a.63.63,0,0,1,.5-.34.64.64,0,0,1,.67.6l.18.63.81,1.05a.58.58,0,0,1,.09.53Z"/><path d="M34.31,84s-.13,0-.26-.32a2.44,2.44,0,0,1,0-1,1.47,1.47,0,0,0-.1-1.11.65.65,0,0,1,0-.66.54.54,0,0,1,.39-.3l.19,0a10.33,10.33,0,0,0,1.33.68.58.58,0,0,1,.49.62c0,.24-.27.42-.64.47-.53,0-.89.47-1.14,1.27-.17.32-.27.36-.3.36"/><path d="M98.33,106.29a.67.67,0,0,1-.56-.2.56.56,0,0,1-.07-.5c.13-.33,0-.65-.43-1a1.11,1.11,0,0,1-.24-1.15,1.31,1.31,0,0,1,1.08-.65,1,1,0,0,1,1,.36,1.4,1.4,0,0,1,0,1.31.73.73,0,0,0-.21.92.62.62,0,0,1-.55.86"/><path d="M110.45,95.52a.45.45,0,0,1-.52-.4c0-.35-.31-.55-.82-.58-.56-.22-.84-.59-.76-1.05a1.55,1.55,0,0,1,1.27-1.11c.55,0,.92.35,1,1.14a.72.72,0,0,0,.27.88.57.57,0,0,1,.2.63.79.79,0,0,1-.66.49"/><path d="M116.9,81.43a.57.57,0,0,1-.52-.31c-.09-.26-.33-.38-.7-.35a2.24,2.24,0,0,0-.24,0c-.86-.14-1-.68-.93-1a1.44,1.44,0,0,1,1.14-1.25c.41,0,.76.27,1,.86l0,.14c.06.25.12.52.46.62a.55.55,0,0,1,.37.65.78.78,0,0,1-.62.6"/><path d="M101.28,111a1.21,1.21,0,0,1-1.07-.71.69.69,0,0,0-.59-.7.51.51,0,0,1-.43-.57.82.82,0,0,1,.67-.68.44.44,0,0,1,.43.22.63.63,0,0,0,.63.28,1.77,1.77,0,0,0,.39-.09c.71,0,1.13.25,1.14.81a1.51,1.51,0,0,1-1.17,1.44"/><path d="M115,98.07a1.68,1.68,0,0,1-.88-.23.71.71,0,0,0-.64-.34l-.22.06-.15,0a.56.56,0,0,1-.44-.14.57.57,0,0,1-.16-.37.67.67,0,0,1,.62-.71h.22a.53.53,0,0,0,.31.07,1,1,0,0,0,.65-.4,1.74,1.74,0,0,1,.61-.2.74.74,0,0,1,.74.38,1.4,1.4,0,0,1,.06,1.35.9.9,0,0,1-.72.5"/><path d="M121.89,82.48a1.63,1.63,0,0,1-.6-.07.8.8,0,0,0-.61-.2,1.1,1.1,0,0,0-.41.13l-.23,0a.57.57,0,0,1-.66-.56.79.79,0,0,1,.13-.45.52.52,0,0,1,.41-.21h.17l.21,0c.25,0,.47-.19.68-.55a1.38,1.38,0,0,1,.78-.42.78.78,0,0,1,.71.39,1.5,1.5,0,0,1,.11,1.42.82.82,0,0,1-.69.45"/><path d="M87.23,114.57a2.84,2.84,0,0,1-1-.1,12.62,12.62,0,0,1-3.14-1.57,9.86,9.86,0,0,0-4.29-1.24.5.5,0,0,1-.4-.6.58.58,0,0,1,.47-.56,22,22,0,0,1,5,1.48,2.12,2.12,0,0,0,1,.14,2.55,2.55,0,0,0,1.13-.39l.65-.28c3.19-1.41,6-2.64,8.94-2.88l1,0c.3,0,.43.08.43.12s-.13.22-.82.29l-.31,0a4.54,4.54,0,0,0-1.77.53c-.84.39-1.62.79-2.35,1.17a11.37,11.37,0,0,1-3.58,1.46h-.31c-1,.13-1.63.42-1.63.74s.22.33.6.36a7.66,7.66,0,0,0,.83,0,10.13,10.13,0,0,0,3.53-1.16,16.23,16.23,0,0,1,5.95-2.72h.26a.81.81,0,0,1,.24,0,1.8,1.8,0,0,1-.26.45c-1.38,1.52-4,2.65-6.19,3.47-.59.2-1.13.42-1.61.61a8.27,8.27,0,0,1-2.28.7"/><path d="M90,116.4c-2.07.17-3.33-.25-3.94-1.34a4.7,4.7,0,0,0,1.53.11,17.11,17.11,0,0,0,5.26-1.8,11.7,11.7,0,0,1,3.23-1.22c.47,0,.68.07.71.18s-.06.17-.2.24L91,114.88c-.33.13-.52.31-.49.47s.17.2.41.19A16.34,16.34,0,0,0,94.67,114a8,8,0,0,1,2.85-1.11h.38c.19,0,.28.07.28.1s-.06.14-.32.28a40,40,0,0,1-7.35,3.12l-.5.05"/><path d="M85.14,111.63c-.59.06-1.32-.16-1.49-.58h.09a5.67,5.67,0,0,0,3.05-1.76,18.38,18.38,0,0,1,1.82-1.45,2.16,2.16,0,0,1,.9-.32,3.79,3.79,0,0,0,1.25-.4,5.28,5.28,0,0,1,2.14-.8,2.15,2.15,0,0,1,1.24.25c.3.22.31.29.31.3h-.24a2.34,2.34,0,0,0-.53,0,4.44,4.44,0,0,0-2.4,1l-2.13.61c-.56.18-1.15.5-1.12.76,0,.08.07.17.32.15l.19,0,1.06-.27a3.5,3.5,0,0,0,1-.46,3.7,3.7,0,0,1,1.45-.56,7.77,7.77,0,0,0,1.51-.43c.26-.1.53-.19.84-.28h0a.31.31,0,0,1,.37.3.41.41,0,0,1-.31.46c-.42.12-.83.21-1.24.29a13.85,13.85,0,0,0-2,.56,43.34,43.34,0,0,0-5.44,2.45,1.27,1.27,0,0,1-.67.21"/><path d="M98.59,108.12a.55.55,0,0,1-.58-.31.47.47,0,0,1,.16-.52c.12-.36.6-.69,1.27-1.15a14.21,14.21,0,0,0,3.75-3.44,21,21,0,0,1,4.16-3.94c.73-.6,1.53-1.23,2.33-1.93.29-.31.38-.34.4-.34a1.44,1.44,0,0,1,0,.33c-.23,1-1.16,2.09-2.84,3.32-1.84,1.38-3.83,3-4.5,4.25-.16.27-.2.42-.14.52l0,0,.11,0c.1,0,.29-.07.88-.53a14.43,14.43,0,0,1,3.74-3.45,8.84,8.84,0,0,0,3-3.45,1.16,1.16,0,0,1,.19-.29,4,4,0,0,1,0,.77c0,1.18-.74,2.41-2.23,3.66a19.75,19.75,0,0,1-5.36,4c-2,.45-3.26,1.11-3.81,2a.76.76,0,0,1-.58.37"/><path d="M105.2,106.76c-.45,0-.9.06-1.34.07s-.88,0-1.31.08-.38-.06-.4-.14.06-.22.32-.32a15.52,15.52,0,0,0,8.1-6.13.81.81,0,0,1,.5-.27l.21.06a.35.35,0,0,1,0,.28,12.93,12.93,0,0,1-4.21,4.38l-.47.35c-.29.2-.46.44-.4.62s.12.16.25.15a.59.59,0,0,0,.25-.08,19.13,19.13,0,0,0,5.23-5.27c.1-.17.18-.19.2-.19s.11.09.13.27c.16.62-.31,1.45-1.36,2.47a16.85,16.85,0,0,1-3.67,3.3,10,10,0,0,1-2.08.37"/><path d="M100.64,104.6a.23.23,0,0,1-.18-.07.53.53,0,0,1,0-.39,11.85,11.85,0,0,0,.44-2.31,4.09,4.09,0,0,1,1.57-2.43,33.61,33.61,0,0,0,3.78-3.69c.1-.12.14-.13.14-.13s.08,0,.1.36c0,.57-.53,1.09-1.35,1.86-.47.44-1,1-1.64,1.66l-1.4,1.59c-.14.27-.17.45-.11.55l0,0,.17,0a1.32,1.32,0,0,0,.67-.46A17.5,17.5,0,0,1,105.71,98a1.08,1.08,0,0,1,.39-.26c.05,0,.11.13,0,.52a3.42,3.42,0,0,1-1.44,1.86,10.6,10.6,0,0,0-2.46,2.92,4,4,0,0,1-1.57,1.57"/><path d="M111.47,96.9a.27.27,0,0,1-.29-.17.5.5,0,0,1,0-.55,9,9,0,0,0,2-4.71l.37-1a25.43,25.43,0,0,1,3.33-6.65c.27-.27.37-.3.39-.3s.06.06-.06.46a37.32,37.32,0,0,1-1.84,4.47A31.88,31.88,0,0,0,114,91.72c-.09.29-.1.46,0,.55l0,0,.12,0a.92.92,0,0,0,.39-.24A18.42,18.42,0,0,0,116.77,87a25.52,25.52,0,0,1,1.46-3.82c.26-.4.37-.45.39-.45s.11,0,.13.62c0,2.3-.94,5-2.71,8.28a5.71,5.71,0,0,1-1.12,1.13A3.71,3.71,0,0,0,113.79,94a10.32,10.32,0,0,1-1.86,2.65.84.84,0,0,1-.46.26"/><path d="M112.12,93c-.06,0-.14,0-.28-.17-2-3,0-6.58,2-9,.23-.21.37-.26.43-.26a.23.23,0,0,1,.09.33,3.83,3.83,0,0,0-1,2.13,4.82,4.82,0,0,1-.89,2,4.9,4.9,0,0,0-.43.75c-.27.58-.35,1-.24,1.19l0,0,.14,0c.14,0,.26-.17.35-.29a19.44,19.44,0,0,0,1.41-3.27A9.47,9.47,0,0,1,115,83.9c.17-.2.29-.25.36-.25l.17.06a.58.58,0,0,1,.1.45,24.33,24.33,0,0,1-2.21,4.9,5.36,5.36,0,0,0-.85,2.46c-.13.8-.24,1.49-.44,1.5"/><path d="M114.8,94.26l-.15,0s0-.13.15-.46a11.58,11.58,0,0,0,3.07-4.25c.39-2,1-3.07,2.2-3.77a2,2,0,0,1,.55-.22s0,.13-.34.58a9.09,9.09,0,0,0-1.45,2.84,9.42,9.42,0,0,1-1.39,2.78c-.22.31-.29.49-.23.59l0,0,.13,0a1.25,1.25,0,0,0,.37-.14,6.63,6.63,0,0,0,1.35-2.65A12.15,12.15,0,0,1,121,85.83c.25-.19.36-.23.4-.23s.08.08-.13.57c-.32.73-.59,1.52-.84,2.26a14.71,14.71,0,0,1-1.92,4.17,4.34,4.34,0,0,1-1.25.8c-.27.12-.54.2-.81.29a7.48,7.48,0,0,0-.9.33,2.94,2.94,0,0,1-.72.24"/><path d="M117.74,78.42a.52.52,0,0,1-.33-.18c-1.83-1.41-2.28-3.79-1.43-7.45,0-.17.09-.28.11-.37l.14.09a1.6,1.6,0,0,1,.32,1.78,6.58,6.58,0,0,0,.2,3.93c.11.25.27.32.38.31h0l.13-.11a.33.33,0,0,0,0-.33,4.92,4.92,0,0,1-.22-3,2.44,2.44,0,0,0,.07-.92c-.07-.22,0-.28,0-.29h0a.53.53,0,0,1,.28.1c.26.28.5.78.29,2.31a5.08,5.08,0,0,0,.12,2.3,2.1,2.1,0,0,1,.12,1.59c-.06.15-.12.23-.19.23"/><path d="M118.16,82.29a.4.4,0,0,1-.33-.13.49.49,0,0,1-.11-.44,13.65,13.65,0,0,1,.37-2.37,9.71,9.71,0,0,0,.34-2.83c-.1-3.53.25-5.6,1.11-6.54.18-.17.3-.22.36-.22s.18.12.22.39a3.81,3.81,0,0,1-.54,2.7,9.53,9.53,0,0,0-.41,3.74.5.5,0,0,0,.14.36.31.31,0,0,0,.28.1c.18,0,.37-.17.39-.61a7.31,7.31,0,0,1,.39-3.69,3.62,3.62,0,0,0,.28-2.56c0-.25,0-.28,0-.28s.07,0,.25.16.53.56.57,1.87a12.53,12.53,0,0,1-.62,4.37,13.74,13.74,0,0,1-1,1.78,8,8,0,0,0-1,2,2.72,2.72,0,0,0-.21,1.71.51.51,0,0,1-.43.54"/><path d="M119.68,80.13h-.08s-.06-.16.09-.54l1.81-3c.41-.52.61-2.09.63-4.9,0-.29,0-.38.05-.41h0l.17.07c.3.17.57.45.38,1.18L122.35,75,122,76.61a.57.57,0,0,0,.09.4l0,0,.14,0c.14,0,.29-.16.29-.44a4.36,4.36,0,0,1,.48-2.15,6,6,0,0,0,0-3.24.51.51,0,0,1,0-.23,1.46,1.46,0,0,1,.29.27,2.29,2.29,0,0,1,.58,2.23,3.17,3.17,0,0,0-.19,1.56,2.9,2.9,0,0,1-.61,2.1l-2.58,2.51a2.21,2.21,0,0,1-.84.44"/></g></svg>